<?xml version="1.0" encoding="utf-8" standalone="no"?>
<!DOCTYPE svg PUBLIC "-//W3C//DTD SVG 1.1//EN"
  "http://www.w3.org/Graphics/SVG/1.1/DTD/svg11.dtd">
<svg xmlns:xlink="http://www.w3.org/1999/xlink" width="720pt" height="698.4pt" viewBox="0 0 720 698.4" xmlns="http://www.w3.org/2000/svg" version="1.1">
 <metadata>
  <rdf:RDF xmlns:dc="http://purl.org/dc/elements/1.1/" xmlns:cc="http://creativecommons.org/ns#" xmlns:rdf="http://www.w3.org/1999/02/22-rdf-syntax-ns#">
   <cc:Work>
    <dc:type rdf:resource="http://purl.org/dc/dcmitype/StillImage"/>
    <dc:date>2024-03-26T11:41:41.112513</dc:date>
    <dc:format>image/svg+xml</dc:format>
    <dc:creator>
     <cc:Agent>
      <dc:title>Matplotlib v3.8.3, https://matplotlib.org/</dc:title>
     </cc:Agent>
    </dc:creator>
   </cc:Work>
  </rdf:RDF>
 </metadata>
 <defs>
  <style type="text/css">*{stroke-linejoin: round; stroke-linecap: butt}</style>
 </defs>
 <g id="figure_1">
  <g id="patch_1">
   <path d="M 0 698.4 
L 720 698.4 
L 720 0 
L 0 0 
z
" style="fill: #ffffff"/>
  </g>
  <g id="axes_1">
   <g id="patch_2">
    <path d="M 59.543659 321.5356 
L 355.005659 321.5356 
L 355.005659 26.0736 
L 59.543659 26.0736 
z
" style="fill: #ffffff"/>
   </g>
   <g id="patch_3">
    <path d="M 186.170231 237.117886 
C 202.96111 237.117886 219.066539 230.446799 230.939484 218.573854 
C 242.812429 206.700909 249.483516 190.59548 249.483516 173.8046 
C 249.483516 157.01372 242.812429 140.908291 230.939484 129.035346 
C 219.066539 117.162401 202.96111 110.491314 186.170231 110.491314 
C 169.379351 110.491314 153.273922 117.162401 141.400977 129.035346 
C 129.528032 140.908291 122.856945 157.01372 122.856945 173.8046 
C 122.856945 190.59548 129.528032 206.700909 141.400977 218.573854 
C 153.273922 230.446799 169.379351 237.117886 186.170231 237.117886 
z
" clip-path="url(#p74d9a9e3e2)" style="fill: #ffc0cb; stroke: #ffc0cb; stroke-width: 2; stroke-linejoin: miter"/>
   </g>
   <g id="patch_4">
    <path d="M 186.170231 216.013457 
C 197.36415 216.013457 208.101103 211.566066 216.0164 203.650769 
C 223.931696 195.735473 228.379088 184.99852 228.379088 173.8046 
C 228.379088 162.61068 223.931696 151.873727 216.0164 143.958431 
C 208.101103 136.043134 197.36415 131.595743 186.170231 131.595743 
C 174.976311 131.595743 164.239358 136.043134 156.324061 143.958431 
C 148.408765 151.873727 143.961373 162.61068 143.961373 173.8046 
C 143.961373 184.99852 148.408765 195.735473 156.324061 203.650769 
C 164.239358 211.566066 174.976311 216.013457 186.170231 216.013457 
z
" clip-path="url(#p74d9a9e3e2)" style="fill: #ffb6c1; stroke: #ffb6c1; stroke-width: 2; stroke-linejoin: miter"/>
   </g>
   <g id="patch_5">
    <path d="M 186.170231 194.909029 
C 191.76719 194.909029 197.135667 192.685333 201.093315 188.727685 
C 205.050963 184.770036 207.274659 179.40156 207.274659 173.8046 
C 207.274659 168.20764 205.050963 162.839164 201.093315 158.881515 
C 197.135667 154.923867 191.76719 152.700171 186.170231 152.700171 
C 180.573271 152.700171 175.204794 154.923867 171.247146 158.881515 
C 167.289498 162.839164 165.065802 168.20764 165.065802 173.8046 
C 165.065802 179.40156 167.289498 184.770036 171.247146 188.727685 
C 175.204794 192.685333 180.573271 194.909029 186.170231 194.909029 
z
" clip-path="url(#p74d9a9e3e2)" style="fill: #ff0000; stroke: #ff0000; stroke-width: 2; stroke-linejoin: miter"/>
   </g>
   <g id="patch_6">
    <path d="M 312.796802 110.491314 
C 323.990722 110.491314 334.727674 106.043923 342.642971 98.128626 
C 350.558268 90.21333 355.005659 79.476377 355.005659 68.282457 
C 355.005659 57.088537 350.558268 46.351585 342.642971 38.436288 
C 334.727674 30.520991 323.990722 26.0736 312.796802 26.0736 
C 301.602882 26.0736 290.865929 30.520991 282.950633 38.436288 
C 275.035336 46.351585 270.587945 57.088537 270.587945 68.282457 
C 270.587945 79.476377 275.035336 90.21333 282.950633 98.128626 
C 290.865929 106.043923 301.602882 110.491314 312.796802 110.491314 
z
" clip-path="url(#p74d9a9e3e2)" style="fill: #bfbf00; stroke: #bfbf00; stroke-width: 2; stroke-linejoin: miter"/>
   </g>
   <g id="PathCollection_1">
    <defs>
     <path id="mfd1dad09f9" d="M -7.157652 7.138337 
L -2.149933 3.431694 
L -2.783082 2.576302 
L -1.241653 1.435358 
L 1.412274 5.020825 
L 4.843455 2.481128 
L 5.835292 3.821112 
L 3.751171 5.363735 
L 5.638861 7.914027 
L 10.646596 4.207386 
L 8.758899 1.657085 
L 6.674794 3.19971 
L 5.682957 1.859726 
L 9.114131 -0.67998 
L 3.184551 -8.690912 
L -0.246629 -6.151215 
L -1.233126 -7.483984 
L 0.850979 -9.026609 
L -1.03707 -11.577385 
L -6.044789 -7.870742 
L -4.156749 -5.319959 
L -2.072635 -6.862591 
L -1.086131 -5.529813 
L -4.517305 -2.990106 
L -1.863388 0.595368 
L -3.404835 1.736325 
L -4.037975 0.880927 
L -9.045703 4.587577 
L -7.157652 7.138337 
z
" style="stroke: #0000ff"/>
    </defs>
    <g clip-path="url(#p74d9a9e3e2)">
     <use xlink:href="#mfd1dad09f9" x="276.907145" y="89.630243" style="fill: #0000ff; stroke: #0000ff"/>
    </g>
   </g>
   <g id="matplotlib.axis_1">
    <g id="xtick_1">
     <g id="line2d_1">
      <defs>
       <path id="mc89a8477c8" d="M 0 0 
L 0 3.5 
" style="stroke: #000000; stroke-width: 0.8"/>
      </defs>
      <g>
       <use xlink:href="#mc89a8477c8" x="59.543659" y="321.5356" style="stroke: #000000; stroke-width: 0.8"/>
      </g>
     </g>
     <g id="text_1">
      <!-- −1.2 -->
      <g transform="translate(47.402253 336.134038) scale(0.1 -0.1)">
       <defs>
        <path id="DejaVuSans-2212" d="M 678 2272 
L 4684 2272 
L 4684 1741 
L 678 1741 
L 678 2272 
z
" transform="scale(0.015625)"/>
        <path id="DejaVuSans-31" d="M 794 531 
L 1825 531 
L 1825 4091 
L 703 3866 
L 703 4441 
L 1819 4666 
L 2450 4666 
L 2450 531 
L 3481 531 
L 3481 0 
L 794 0 
L 794 531 
z
" transform="scale(0.015625)"/>
        <path id="DejaVuSans-2e" d="M 684 794 
L 1344 794 
L 1344 0 
L 684 0 
L 684 794 
z
" transform="scale(0.015625)"/>
        <path id="DejaVuSans-32" d="M 1228 531 
L 3431 531 
L 3431 0 
L 469 0 
L 469 531 
Q 828 903 1448 1529 
Q 2069 2156 2228 2338 
Q 2531 2678 2651 2914 
Q 2772 3150 2772 3378 
Q 2772 3750 2511 3984 
Q 2250 4219 1831 4219 
Q 1534 4219 1204 4116 
Q 875 4013 500 3803 
L 500 4441 
Q 881 4594 1212 4672 
Q 1544 4750 1819 4750 
Q 2544 4750 2975 4387 
Q 3406 4025 3406 3419 
Q 3406 3131 3298 2873 
Q 3191 2616 2906 2266 
Q 2828 2175 2409 1742 
Q 1991 1309 1228 531 
z
" transform="scale(0.015625)"/>
       </defs>
       <use xlink:href="#DejaVuSans-2212"/>
       <use xlink:href="#DejaVuSans-31" x="83.789062"/>
       <use xlink:href="#DejaVuSans-2e" x="147.412109"/>
       <use xlink:href="#DejaVuSans-32" x="179.199219"/>
      </g>
     </g>
    </g>
    <g id="xtick_2">
     <g id="line2d_2">
      <g>
       <use xlink:href="#mc89a8477c8" x="101.752516" y="321.5356" style="stroke: #000000; stroke-width: 0.8"/>
      </g>
     </g>
     <g id="text_2">
      <!-- −1.0 -->
      <g transform="translate(89.61111 336.134038) scale(0.1 -0.1)">
       <defs>
        <path id="DejaVuSans-30" d="M 2034 4250 
Q 1547 4250 1301 3770 
Q 1056 3291 1056 2328 
Q 1056 1369 1301 889 
Q 1547 409 2034 409 
Q 2525 409 2770 889 
Q 3016 1369 3016 2328 
Q 3016 3291 2770 3770 
Q 2525 4250 2034 4250 
z
M 2034 4750 
Q 2819 4750 3233 4129 
Q 3647 3509 3647 2328 
Q 3647 1150 3233 529 
Q 2819 -91 2034 -91 
Q 1250 -91 836 529 
Q 422 1150 422 2328 
Q 422 3509 836 4129 
Q 1250 4750 2034 4750 
z
" transform="scale(0.015625)"/>
       </defs>
       <use xlink:href="#DejaVuSans-2212"/>
       <use xlink:href="#DejaVuSans-31" x="83.789062"/>
       <use xlink:href="#DejaVuSans-2e" x="147.412109"/>
       <use xlink:href="#DejaVuSans-30" x="179.199219"/>
      </g>
     </g>
    </g>
    <g id="xtick_3">
     <g id="line2d_3">
      <g>
       <use xlink:href="#mc89a8477c8" x="143.961373" y="321.5356" style="stroke: #000000; stroke-width: 0.8"/>
      </g>
     </g>
     <g id="text_3">
      <!-- −0.8 -->
      <g transform="translate(131.819967 336.134038) scale(0.1 -0.1)">
       <defs>
        <path id="DejaVuSans-38" d="M 2034 2216 
Q 1584 2216 1326 1975 
Q 1069 1734 1069 1313 
Q 1069 891 1326 650 
Q 1584 409 2034 409 
Q 2484 409 2743 651 
Q 3003 894 3003 1313 
Q 3003 1734 2745 1975 
Q 2488 2216 2034 2216 
z
M 1403 2484 
Q 997 2584 770 2862 
Q 544 3141 544 3541 
Q 544 4100 942 4425 
Q 1341 4750 2034 4750 
Q 2731 4750 3128 4425 
Q 3525 4100 3525 3541 
Q 3525 3141 3298 2862 
Q 3072 2584 2669 2484 
Q 3125 2378 3379 2068 
Q 3634 1759 3634 1313 
Q 3634 634 3220 271 
Q 2806 -91 2034 -91 
Q 1263 -91 848 271 
Q 434 634 434 1313 
Q 434 1759 690 2068 
Q 947 2378 1403 2484 
z
M 1172 3481 
Q 1172 3119 1398 2916 
Q 1625 2713 2034 2713 
Q 2441 2713 2670 2916 
Q 2900 3119 2900 3481 
Q 2900 3844 2670 4047 
Q 2441 4250 2034 4250 
Q 1625 4250 1398 4047 
Q 1172 3844 1172 3481 
z
" transform="scale(0.015625)"/>
       </defs>
       <use xlink:href="#DejaVuSans-2212"/>
       <use xlink:href="#DejaVuSans-30" x="83.789062"/>
       <use xlink:href="#DejaVuSans-2e" x="147.412109"/>
       <use xlink:href="#DejaVuSans-38" x="179.199219"/>
      </g>
     </g>
    </g>
    <g id="xtick_4">
     <g id="line2d_4">
      <g>
       <use xlink:href="#mc89a8477c8" x="186.170231" y="321.5356" style="stroke: #000000; stroke-width: 0.8"/>
      </g>
     </g>
     <g id="text_4">
      <!-- −0.6 -->
      <g transform="translate(174.028824 336.134038) scale(0.1 -0.1)">
       <defs>
        <path id="DejaVuSans-36" d="M 2113 2584 
Q 1688 2584 1439 2293 
Q 1191 2003 1191 1497 
Q 1191 994 1439 701 
Q 1688 409 2113 409 
Q 2538 409 2786 701 
Q 3034 994 3034 1497 
Q 3034 2003 2786 2293 
Q 2538 2584 2113 2584 
z
M 3366 4563 
L 3366 3988 
Q 3128 4100 2886 4159 
Q 2644 4219 2406 4219 
Q 1781 4219 1451 3797 
Q 1122 3375 1075 2522 
Q 1259 2794 1537 2939 
Q 1816 3084 2150 3084 
Q 2853 3084 3261 2657 
Q 3669 2231 3669 1497 
Q 3669 778 3244 343 
Q 2819 -91 2113 -91 
Q 1303 -91 875 529 
Q 447 1150 447 2328 
Q 447 3434 972 4092 
Q 1497 4750 2381 4750 
Q 2619 4750 2861 4703 
Q 3103 4656 3366 4563 
z
" transform="scale(0.015625)"/>
       </defs>
       <use xlink:href="#DejaVuSans-2212"/>
       <use xlink:href="#DejaVuSans-30" x="83.789062"/>
       <use xlink:href="#DejaVuSans-2e" x="147.412109"/>
       <use xlink:href="#DejaVuSans-36" x="179.199219"/>
      </g>
     </g>
    </g>
    <g id="xtick_5">
     <g id="line2d_5">
      <g>
       <use xlink:href="#mc89a8477c8" x="228.379088" y="321.5356" style="stroke: #000000; stroke-width: 0.8"/>
      </g>
     </g>
     <g id="text_5">
      <!-- −0.4 -->
      <g transform="translate(216.237681 336.134038) scale(0.1 -0.1)">
       <defs>
        <path id="DejaVuSans-34" d="M 2419 4116 
L 825 1625 
L 2419 1625 
L 2419 4116 
z
M 2253 4666 
L 3047 4666 
L 3047 1625 
L 3713 1625 
L 3713 1100 
L 3047 1100 
L 3047 0 
L 2419 0 
L 2419 1100 
L 313 1100 
L 313 1709 
L 2253 4666 
z
" transform="scale(0.015625)"/>
       </defs>
       <use xlink:href="#DejaVuSans-2212"/>
       <use xlink:href="#DejaVuSans-30" x="83.789062"/>
       <use xlink:href="#DejaVuSans-2e" x="147.412109"/>
       <use xlink:href="#DejaVuSans-34" x="179.199219"/>
      </g>
     </g>
    </g>
    <g id="xtick_6">
     <g id="line2d_6">
      <g>
       <use xlink:href="#mc89a8477c8" x="270.587945" y="321.5356" style="stroke: #000000; stroke-width: 0.8"/>
      </g>
     </g>
     <g id="text_6">
      <!-- −0.2 -->
      <g transform="translate(258.446539 336.134038) scale(0.1 -0.1)">
       <use xlink:href="#DejaVuSans-2212"/>
       <use xlink:href="#DejaVuSans-30" x="83.789062"/>
       <use xlink:href="#DejaVuSans-2e" x="147.412109"/>
       <use xlink:href="#DejaVuSans-32" x="179.199219"/>
      </g>
     </g>
    </g>
    <g id="xtick_7">
     <g id="line2d_7">
      <g>
       <use xlink:href="#mc89a8477c8" x="312.796802" y="321.5356" style="stroke: #000000; stroke-width: 0.8"/>
      </g>
     </g>
     <g id="text_7">
      <!-- 0.0 -->
      <g transform="translate(304.845239 336.134038) scale(0.1 -0.1)">
       <use xlink:href="#DejaVuSans-30"/>
       <use xlink:href="#DejaVuSans-2e" x="63.623047"/>
       <use xlink:href="#DejaVuSans-30" x="95.410156"/>
      </g>
     </g>
    </g>
    <g id="xtick_8">
     <g id="line2d_8">
      <g>
       <use xlink:href="#mc89a8477c8" x="355.005659" y="321.5356" style="stroke: #000000; stroke-width: 0.8"/>
      </g>
     </g>
     <g id="text_8">
      <!-- 0.2 -->
      <g transform="translate(347.054097 336.134038) scale(0.1 -0.1)">
       <use xlink:href="#DejaVuSans-30"/>
       <use xlink:href="#DejaVuSans-2e" x="63.623047"/>
       <use xlink:href="#DejaVuSans-32" x="95.410156"/>
      </g>
     </g>
    </g>
    <g id="text_9">
     <!-- x [m] -->
     <g transform="translate(193.954347 349.812163) scale(0.1 -0.1)">
      <defs>
       <path id="DejaVuSans-78" d="M 3513 3500 
L 2247 1797 
L 3578 0 
L 2900 0 
L 1881 1375 
L 863 0 
L 184 0 
L 1544 1831 
L 300 3500 
L 978 3500 
L 1906 2253 
L 2834 3500 
L 3513 3500 
z
" transform="scale(0.015625)"/>
       <path id="DejaVuSans-20" transform="scale(0.015625)"/>
       <path id="DejaVuSans-5b" d="M 550 4863 
L 1875 4863 
L 1875 4416 
L 1125 4416 
L 1125 -397 
L 1875 -397 
L 1875 -844 
L 550 -844 
L 550 4863 
z
" transform="scale(0.015625)"/>
       <path id="DejaVuSans-6d" d="M 3328 2828 
Q 3544 3216 3844 3400 
Q 4144 3584 4550 3584 
Q 5097 3584 5394 3201 
Q 5691 2819 5691 2113 
L 5691 0 
L 5113 0 
L 5113 2094 
Q 5113 2597 4934 2840 
Q 4756 3084 4391 3084 
Q 3944 3084 3684 2787 
Q 3425 2491 3425 1978 
L 3425 0 
L 2847 0 
L 2847 2094 
Q 2847 2600 2669 2842 
Q 2491 3084 2119 3084 
Q 1678 3084 1418 2786 
Q 1159 2488 1159 1978 
L 1159 0 
L 581 0 
L 581 3500 
L 1159 3500 
L 1159 2956 
Q 1356 3278 1631 3431 
Q 1906 3584 2284 3584 
Q 2666 3584 2933 3390 
Q 3200 3197 3328 2828 
z
" transform="scale(0.015625)"/>
       <path id="DejaVuSans-5d" d="M 1947 4863 
L 1947 -844 
L 622 -844 
L 622 -397 
L 1369 -397 
L 1369 4416 
L 622 4416 
L 622 4863 
L 1947 4863 
z
" transform="scale(0.015625)"/>
      </defs>
      <use xlink:href="#DejaVuSans-78"/>
      <use xlink:href="#DejaVuSans-20" x="59.179688"/>
      <use xlink:href="#DejaVuSans-5b" x="90.966797"/>
      <use xlink:href="#DejaVuSans-6d" x="129.980469"/>
      <use xlink:href="#DejaVuSans-5d" x="227.392578"/>
     </g>
    </g>
   </g>
   <g id="matplotlib.axis_2">
    <g id="ytick_1">
     <g id="line2d_9">
      <defs>
       <path id="m048a1d1de7" d="M 0 0 
L -3.5 0 
" style="stroke: #000000; stroke-width: 0.8"/>
      </defs>
      <g>
       <use xlink:href="#m048a1d1de7" x="59.543659" y="321.5356" style="stroke: #000000; stroke-width: 0.8"/>
      </g>
     </g>
     <g id="text_10">
      <!-- −1.2 -->
      <g transform="translate(28.260847 325.334819) scale(0.1 -0.1)">
       <use xlink:href="#DejaVuSans-2212"/>
       <use xlink:href="#DejaVuSans-31" x="83.789062"/>
       <use xlink:href="#DejaVuSans-2e" x="147.412109"/>
       <use xlink:href="#DejaVuSans-32" x="179.199219"/>
      </g>
     </g>
    </g>
    <g id="ytick_2">
     <g id="line2d_10">
      <g>
       <use xlink:href="#m048a1d1de7" x="59.543659" y="279.326743" style="stroke: #000000; stroke-width: 0.8"/>
      </g>
     </g>
     <g id="text_11">
      <!-- −1.0 -->
      <g transform="translate(28.260847 283.125962) scale(0.1 -0.1)">
       <use xlink:href="#DejaVuSans-2212"/>
       <use xlink:href="#DejaVuSans-31" x="83.789062"/>
       <use xlink:href="#DejaVuSans-2e" x="147.412109"/>
       <use xlink:href="#DejaVuSans-30" x="179.199219"/>
      </g>
     </g>
    </g>
    <g id="ytick_3">
     <g id="line2d_11">
      <g>
       <use xlink:href="#m048a1d1de7" x="59.543659" y="237.117886" style="stroke: #000000; stroke-width: 0.8"/>
      </g>
     </g>
     <g id="text_12">
      <!-- −0.8 -->
      <g transform="translate(28.260847 240.917104) scale(0.1 -0.1)">
       <use xlink:href="#DejaVuSans-2212"/>
       <use xlink:href="#DejaVuSans-30" x="83.789062"/>
       <use xlink:href="#DejaVuSans-2e" x="147.412109"/>
       <use xlink:href="#DejaVuSans-38" x="179.199219"/>
      </g>
     </g>
    </g>
    <g id="ytick_4">
     <g id="line2d_12">
      <g>
       <use xlink:href="#m048a1d1de7" x="59.543659" y="194.909029" style="stroke: #000000; stroke-width: 0.8"/>
      </g>
     </g>
     <g id="text_13">
      <!-- −0.6 -->
      <g transform="translate(28.260847 198.708247) scale(0.1 -0.1)">
       <use xlink:href="#DejaVuSans-2212"/>
       <use xlink:href="#DejaVuSans-30" x="83.789062"/>
       <use xlink:href="#DejaVuSans-2e" x="147.412109"/>
       <use xlink:href="#DejaVuSans-36" x="179.199219"/>
      </g>
     </g>
    </g>
    <g id="ytick_5">
     <g id="line2d_13">
      <g>
       <use xlink:href="#m048a1d1de7" x="59.543659" y="152.700171" style="stroke: #000000; stroke-width: 0.8"/>
      </g>
     </g>
     <g id="text_14">
      <!-- −0.4 -->
      <g transform="translate(28.260847 156.49939) scale(0.1 -0.1)">
       <use xlink:href="#DejaVuSans-2212"/>
       <use xlink:href="#DejaVuSans-30" x="83.789062"/>
       <use xlink:href="#DejaVuSans-2e" x="147.412109"/>
       <use xlink:href="#DejaVuSans-34" x="179.199219"/>
      </g>
     </g>
    </g>
    <g id="ytick_6">
     <g id="line2d_14">
      <g>
       <use xlink:href="#m048a1d1de7" x="59.543659" y="110.491314" style="stroke: #000000; stroke-width: 0.8"/>
      </g>
     </g>
     <g id="text_15">
      <!-- −0.2 -->
      <g transform="translate(28.260847 114.290533) scale(0.1 -0.1)">
       <use xlink:href="#DejaVuSans-2212"/>
       <use xlink:href="#DejaVuSans-30" x="83.789062"/>
       <use xlink:href="#DejaVuSans-2e" x="147.412109"/>
       <use xlink:href="#DejaVuSans-32" x="179.199219"/>
      </g>
     </g>
    </g>
    <g id="ytick_7">
     <g id="line2d_15">
      <g>
       <use xlink:href="#m048a1d1de7" x="59.543659" y="68.282457" style="stroke: #000000; stroke-width: 0.8"/>
      </g>
     </g>
     <g id="text_16">
      <!-- 0.0 -->
      <g transform="translate(36.640534 72.081676) scale(0.1 -0.1)">
       <use xlink:href="#DejaVuSans-30"/>
       <use xlink:href="#DejaVuSans-2e" x="63.623047"/>
       <use xlink:href="#DejaVuSans-30" x="95.410156"/>
      </g>
     </g>
    </g>
    <g id="ytick_8">
     <g id="line2d_16">
      <g>
       <use xlink:href="#m048a1d1de7" x="59.543659" y="26.0736" style="stroke: #000000; stroke-width: 0.8"/>
      </g>
     </g>
     <g id="text_17">
      <!-- 0.2 -->
      <g transform="translate(36.640534 29.872819) scale(0.1 -0.1)">
       <use xlink:href="#DejaVuSans-30"/>
       <use xlink:href="#DejaVuSans-2e" x="63.623047"/>
       <use xlink:href="#DejaVuSans-32" x="95.410156"/>
      </g>
     </g>
    </g>
    <g id="text_18">
     <!-- y [m] -->
     <g transform="translate(22.181159 187.124913) rotate(-90) scale(0.1 -0.1)">
      <defs>
       <path id="DejaVuSans-79" d="M 2059 -325 
Q 1816 -950 1584 -1140 
Q 1353 -1331 966 -1331 
L 506 -1331 
L 506 -850 
L 844 -850 
Q 1081 -850 1212 -737 
Q 1344 -625 1503 -206 
L 1606 56 
L 191 3500 
L 800 3500 
L 1894 763 
L 2988 3500 
L 3597 3500 
L 2059 -325 
z
" transform="scale(0.015625)"/>
      </defs>
      <use xlink:href="#DejaVuSans-79"/>
      <use xlink:href="#DejaVuSans-20" x="59.179688"/>
      <use xlink:href="#DejaVuSans-5b" x="90.966797"/>
      <use xlink:href="#DejaVuSans-6d" x="129.980469"/>
      <use xlink:href="#DejaVuSans-5d" x="227.392578"/>
     </g>
    </g>
   </g>
   <g id="line2d_17">
    <path d="M 59.543659 68.282457 
L 355.005659 68.282457 
" clip-path="url(#p74d9a9e3e2)" style="fill: none; stroke-dasharray: 2.775,1.2; stroke-dashoffset: 0; stroke: #000000; stroke-width: 0.75"/>
   </g>
   <g id="line2d_18">
    <path d="M 312.796802 321.5356 
L 312.796802 26.0736 
" clip-path="url(#p74d9a9e3e2)" style="fill: none; stroke-dasharray: 2.775,1.2; stroke-dashoffset: 0; stroke: #000000; stroke-width: 0.75"/>
   </g>
   <g id="line2d_19">
    <path d="M 101.752516 279.326743 
L 101.696799 281.010315 
L 101.626247 282.278931 
L 101.890218 280.28278 
L 102.497709 278.044207 
L 103.809812 275.183458 
L 104.970161 273.37131 
L 106.478155 271.608867 
L 108.279817 269.826066 
L 109.77913 268.160986 
L 112.378779 264.221827 
L 115.458358 260.636749 
L 117.93093 256.595529 
L 119.398944 254.799648 
L 122.59529 251.386328 
L 124.099831 249.615976 
L 128.354306 244.082586 
L 131.304211 240.480559 
L 134.195762 236.837513 
L 138.689204 231.464236 
L 142.333774 228.437171 
L 143.900359 226.726597 
L 146.802197 223.061994 
L 145.682048 224.632467 
L 144.595677 226.68187 
L 143.810279 228.864392 
L 144.424528 226.965077 
L 145.457492 224.888243 
L 146.773978 222.978501 
L 151.321228 217.676596 
L 149.942414 219.01028 
L 148.079966 220.392862 
L 146.040595 221.49795 
L 147.82576 220.604705 
L 149.72337 219.27079 
L 151.4131 217.681745 
L 152.933658 215.913924 
L 154.355186 214.078889 
L 157.053401 210.256842 
L 158.62326 208.54846 
L 160.383684 207.037191 
L 158.975181 208.212633 
L 157.529836 209.823651 
L 156.327034 211.623003 
L 157.388638 209.91585 
L 158.892414 208.149806 
L 162.505787 205.08557 
L 164.054769 203.359039 
L 166.608036 199.368195 
L 168.111812 197.602151 
L 171.725185 194.537914 
L 173.274167 192.811384 
L 175.827434 188.820539 
L 177.33121 187.054496 
L 180.944583 183.990259 
L 182.493565 182.263728 
L 183.966304 180.399305 
L 185.532102 178.68594 
L 188.907751 175.444106 
L 190.391945 173.660493 
L 192.973515 169.711552 
L 194.50803 167.972151 
L 198.174584 164.971752 
L 199.753605 163.272651 
L 202.376466 159.327196 
L 203.910981 157.587795 
L 207.577535 154.587396 
L 209.156556 152.888295 
L 211.779417 148.94284 
L 213.313932 147.203439 
L 215.079167 145.698714 
L 213.600035 146.599982 
L 211.650063 147.475228 
L 209.595851 148.065699 
L 211.547567 147.5737 
L 213.687587 146.678955 
L 215.679441 145.490354 
L 214.244026 146.639611 
L 212.615436 148.1962 
L 211.15033 149.907556 
L 212.412075 148.403113 
L 214.100257 146.811536 
L 215.963743 145.429329 
L 215.281706 145.926494 
L 214.478324 146.70223 
L 213.792352 147.583496 
L 215.027997 145.878738 
L 216.655732 144.226246 
L 218.500951 142.820749 
L 216.228364 144.585675 
L 215.122773 145.734044 
L 218.129854 142.635706 
L 221.693964 139.600583 
L 223.27596 137.903198 
L 226.061435 134.093354 
L 227.683704 132.435495 
L 229.524269 131.02391 
L 227.553431 132.59377 
L 226.601474 133.631342 
L 227.959936 132.102267 
L 229.699573 130.567169 
L 233.62186 127.932908 
L 235.346413 126.381725 
L 238.311387 122.686466 
L 239.995214 121.091166 
L 243.81103 118.49875 
L 245.43825 117.035114 
L 248.139861 113.672148 
L 249.609193 112.280066 
L 251.260749 111.10994 
L 250.22791 111.934816 
L 249.731877 112.528199 
L 250.813438 111.138493 
L 252.210375 109.815 
L 255.353007 107.679381 
L 256.681457 106.48448 
L 258.887249 103.738699 
L 260.087072 102.601957 
L 272.309635 93.064501 
L 276.907145 89.630243 
L 276.907145 89.630243 
" clip-path="url(#p74d9a9e3e2)" style="fill: none; stroke-dasharray: 1.85,0.8; stroke-dashoffset: 0; stroke: #0000ff; stroke-width: 0.5"/>
   </g>
   <g id="patch_7">
    <path d="M 59.543659 321.5356 
L 59.543659 26.0736 
" style="fill: none; stroke: #000000; stroke-width: 0.8; stroke-linejoin: miter; stroke-linecap: square"/>
   </g>
   <g id="patch_8">
    <path d="M 355.005659 321.5356 
L 355.005659 26.0736 
" style="fill: none; stroke: #000000; stroke-width: 0.8; stroke-linejoin: miter; stroke-linecap: square"/>
   </g>
   <g id="patch_9">
    <path d="M 59.543659 321.5356 
L 355.005659 321.5356 
" style="fill: none; stroke: #000000; stroke-width: 0.8; stroke-linejoin: miter; stroke-linecap: square"/>
   </g>
   <g id="patch_10">
    <path d="M 59.543659 26.0736 
L 355.005659 26.0736 
" style="fill: none; stroke: #000000; stroke-width: 0.8; stroke-linejoin: miter; stroke-linecap: square"/>
   </g>
   <g id="text_19">
    <!-- Target -->
    <g transform="translate(319.550219 58.379175) scale(0.1 -0.1)">
     <defs>
      <path id="DejaVuSans-54" d="M -19 4666 
L 3928 4666 
L 3928 4134 
L 2272 4134 
L 2272 0 
L 1638 0 
L 1638 4134 
L -19 4134 
L -19 4666 
z
" transform="scale(0.015625)"/>
      <path id="DejaVuSans-61" d="M 2194 1759 
Q 1497 1759 1228 1600 
Q 959 1441 959 1056 
Q 959 750 1161 570 
Q 1363 391 1709 391 
Q 2188 391 2477 730 
Q 2766 1069 2766 1631 
L 2766 1759 
L 2194 1759 
z
M 3341 1997 
L 3341 0 
L 2766 0 
L 2766 531 
Q 2569 213 2275 61 
Q 1981 -91 1556 -91 
Q 1019 -91 701 211 
Q 384 513 384 1019 
Q 384 1609 779 1909 
Q 1175 2209 1959 2209 
L 2766 2209 
L 2766 2266 
Q 2766 2663 2505 2880 
Q 2244 3097 1772 3097 
Q 1472 3097 1187 3025 
Q 903 2953 641 2809 
L 641 3341 
Q 956 3463 1253 3523 
Q 1550 3584 1831 3584 
Q 2591 3584 2966 3190 
Q 3341 2797 3341 1997 
z
" transform="scale(0.015625)"/>
      <path id="DejaVuSans-72" d="M 2631 2963 
Q 2534 3019 2420 3045 
Q 2306 3072 2169 3072 
Q 1681 3072 1420 2755 
Q 1159 2438 1159 1844 
L 1159 0 
L 581 0 
L 581 3500 
L 1159 3500 
L 1159 2956 
Q 1341 3275 1631 3429 
Q 1922 3584 2338 3584 
Q 2397 3584 2469 3576 
Q 2541 3569 2628 3553 
L 2631 2963 
z
" transform="scale(0.015625)"/>
      <path id="DejaVuSans-67" d="M 2906 1791 
Q 2906 2416 2648 2759 
Q 2391 3103 1925 3103 
Q 1463 3103 1205 2759 
Q 947 2416 947 1791 
Q 947 1169 1205 825 
Q 1463 481 1925 481 
Q 2391 481 2648 825 
Q 2906 1169 2906 1791 
z
M 3481 434 
Q 3481 -459 3084 -895 
Q 2688 -1331 1869 -1331 
Q 1566 -1331 1297 -1286 
Q 1028 -1241 775 -1147 
L 775 -588 
Q 1028 -725 1275 -790 
Q 1522 -856 1778 -856 
Q 2344 -856 2625 -561 
Q 2906 -266 2906 331 
L 2906 616 
Q 2728 306 2450 153 
Q 2172 0 1784 0 
Q 1141 0 747 490 
Q 353 981 353 1791 
Q 353 2603 747 3093 
Q 1141 3584 1784 3584 
Q 2172 3584 2450 3431 
Q 2728 3278 2906 2969 
L 2906 3500 
L 3481 3500 
L 3481 434 
z
" transform="scale(0.015625)"/>
      <path id="DejaVuSans-65" d="M 3597 1894 
L 3597 1613 
L 953 1613 
Q 991 1019 1311 708 
Q 1631 397 2203 397 
Q 2534 397 2845 478 
Q 3156 559 3463 722 
L 3463 178 
Q 3153 47 2828 -22 
Q 2503 -91 2169 -91 
Q 1331 -91 842 396 
Q 353 884 353 1716 
Q 353 2575 817 3079 
Q 1281 3584 2069 3584 
Q 2775 3584 3186 3129 
Q 3597 2675 3597 1894 
z
M 3022 2063 
Q 3016 2534 2758 2815 
Q 2500 3097 2075 3097 
Q 1594 3097 1305 2825 
Q 1016 2553 972 2059 
L 3022 2063 
z
" transform="scale(0.015625)"/>
      <path id="DejaVuSans-74" d="M 1172 4494 
L 1172 3500 
L 2356 3500 
L 2356 3053 
L 1172 3053 
L 1172 1153 
Q 1172 725 1289 603 
Q 1406 481 1766 481 
L 2356 481 
L 2356 0 
L 1766 0 
Q 1100 0 847 248 
Q 594 497 594 1153 
L 594 3053 
L 172 3053 
L 172 3500 
L 594 3500 
L 594 4494 
L 1172 4494 
z
" transform="scale(0.015625)"/>
     </defs>
     <use xlink:href="#DejaVuSans-54"/>
     <use xlink:href="#DejaVuSans-61" x="44.583984"/>
     <use xlink:href="#DejaVuSans-72" x="105.863281"/>
     <use xlink:href="#DejaVuSans-67" x="145.226562"/>
     <use xlink:href="#DejaVuSans-65" x="208.703125"/>
     <use xlink:href="#DejaVuSans-74" x="270.226562"/>
    </g>
   </g>
   <g id="text_20">
    <!-- t = 8.860 -->
    <g transform="translate(74.316759 43.606075) scale(0.1 -0.1)">
     <defs>
      <path id="DejaVuSans-3d" d="M 678 2906 
L 4684 2906 
L 4684 2381 
L 678 2381 
L 678 2906 
z
M 678 1631 
L 4684 1631 
L 4684 1100 
L 678 1100 
L 678 1631 
z
" transform="scale(0.015625)"/>
     </defs>
     <use xlink:href="#DejaVuSans-74"/>
     <use xlink:href="#DejaVuSans-20" x="39.208984"/>
     <use xlink:href="#DejaVuSans-3d" x="70.996094"/>
     <use xlink:href="#DejaVuSans-20" x="154.785156"/>
     <use xlink:href="#DejaVuSans-38" x="186.572266"/>
     <use xlink:href="#DejaVuSans-2e" x="250.195312"/>
     <use xlink:href="#DejaVuSans-38" x="281.982422"/>
     <use xlink:href="#DejaVuSans-36" x="345.605469"/>
     <use xlink:href="#DejaVuSans-30" x="409.228516"/>
    </g>
   </g>
   <g id="text_21">
    <!-- Pause - space, q - quit, click - data cursor -->
    <g transform="translate(83.365284 20.0736) scale(0.12 -0.12)">
     <defs>
      <path id="DejaVuSans-50" d="M 1259 4147 
L 1259 2394 
L 2053 2394 
Q 2494 2394 2734 2622 
Q 2975 2850 2975 3272 
Q 2975 3691 2734 3919 
Q 2494 4147 2053 4147 
L 1259 4147 
z
M 628 4666 
L 2053 4666 
Q 2838 4666 3239 4311 
Q 3641 3956 3641 3272 
Q 3641 2581 3239 2228 
Q 2838 1875 2053 1875 
L 1259 1875 
L 1259 0 
L 628 0 
L 628 4666 
z
" transform="scale(0.015625)"/>
      <path id="DejaVuSans-75" d="M 544 1381 
L 544 3500 
L 1119 3500 
L 1119 1403 
Q 1119 906 1312 657 
Q 1506 409 1894 409 
Q 2359 409 2629 706 
Q 2900 1003 2900 1516 
L 2900 3500 
L 3475 3500 
L 3475 0 
L 2900 0 
L 2900 538 
Q 2691 219 2414 64 
Q 2138 -91 1772 -91 
Q 1169 -91 856 284 
Q 544 659 544 1381 
z
M 1991 3584 
L 1991 3584 
z
" transform="scale(0.015625)"/>
      <path id="DejaVuSans-73" d="M 2834 3397 
L 2834 2853 
Q 2591 2978 2328 3040 
Q 2066 3103 1784 3103 
Q 1356 3103 1142 2972 
Q 928 2841 928 2578 
Q 928 2378 1081 2264 
Q 1234 2150 1697 2047 
L 1894 2003 
Q 2506 1872 2764 1633 
Q 3022 1394 3022 966 
Q 3022 478 2636 193 
Q 2250 -91 1575 -91 
Q 1294 -91 989 -36 
Q 684 19 347 128 
L 347 722 
Q 666 556 975 473 
Q 1284 391 1588 391 
Q 1994 391 2212 530 
Q 2431 669 2431 922 
Q 2431 1156 2273 1281 
Q 2116 1406 1581 1522 
L 1381 1569 
Q 847 1681 609 1914 
Q 372 2147 372 2553 
Q 372 3047 722 3315 
Q 1072 3584 1716 3584 
Q 2034 3584 2315 3537 
Q 2597 3491 2834 3397 
z
" transform="scale(0.015625)"/>
      <path id="DejaVuSans-2d" d="M 313 2009 
L 1997 2009 
L 1997 1497 
L 313 1497 
L 313 2009 
z
" transform="scale(0.015625)"/>
      <path id="DejaVuSans-70" d="M 1159 525 
L 1159 -1331 
L 581 -1331 
L 581 3500 
L 1159 3500 
L 1159 2969 
Q 1341 3281 1617 3432 
Q 1894 3584 2278 3584 
Q 2916 3584 3314 3078 
Q 3713 2572 3713 1747 
Q 3713 922 3314 415 
Q 2916 -91 2278 -91 
Q 1894 -91 1617 61 
Q 1341 213 1159 525 
z
M 3116 1747 
Q 3116 2381 2855 2742 
Q 2594 3103 2138 3103 
Q 1681 3103 1420 2742 
Q 1159 2381 1159 1747 
Q 1159 1113 1420 752 
Q 1681 391 2138 391 
Q 2594 391 2855 752 
Q 3116 1113 3116 1747 
z
" transform="scale(0.015625)"/>
      <path id="DejaVuSans-63" d="M 3122 3366 
L 3122 2828 
Q 2878 2963 2633 3030 
Q 2388 3097 2138 3097 
Q 1578 3097 1268 2742 
Q 959 2388 959 1747 
Q 959 1106 1268 751 
Q 1578 397 2138 397 
Q 2388 397 2633 464 
Q 2878 531 3122 666 
L 3122 134 
Q 2881 22 2623 -34 
Q 2366 -91 2075 -91 
Q 1284 -91 818 406 
Q 353 903 353 1747 
Q 353 2603 823 3093 
Q 1294 3584 2113 3584 
Q 2378 3584 2631 3529 
Q 2884 3475 3122 3366 
z
" transform="scale(0.015625)"/>
      <path id="DejaVuSans-2c" d="M 750 794 
L 1409 794 
L 1409 256 
L 897 -744 
L 494 -744 
L 750 256 
L 750 794 
z
" transform="scale(0.015625)"/>
      <path id="DejaVuSans-71" d="M 947 1747 
Q 947 1113 1208 752 
Q 1469 391 1925 391 
Q 2381 391 2643 752 
Q 2906 1113 2906 1747 
Q 2906 2381 2643 2742 
Q 2381 3103 1925 3103 
Q 1469 3103 1208 2742 
Q 947 2381 947 1747 
z
M 2906 525 
Q 2725 213 2448 61 
Q 2172 -91 1784 -91 
Q 1150 -91 751 415 
Q 353 922 353 1747 
Q 353 2572 751 3078 
Q 1150 3584 1784 3584 
Q 2172 3584 2448 3432 
Q 2725 3281 2906 2969 
L 2906 3500 
L 3481 3500 
L 3481 -1331 
L 2906 -1331 
L 2906 525 
z
" transform="scale(0.015625)"/>
      <path id="DejaVuSans-69" d="M 603 3500 
L 1178 3500 
L 1178 0 
L 603 0 
L 603 3500 
z
M 603 4863 
L 1178 4863 
L 1178 4134 
L 603 4134 
L 603 4863 
z
" transform="scale(0.015625)"/>
      <path id="DejaVuSans-6c" d="M 603 4863 
L 1178 4863 
L 1178 0 
L 603 0 
L 603 4863 
z
" transform="scale(0.015625)"/>
      <path id="DejaVuSans-6b" d="M 581 4863 
L 1159 4863 
L 1159 1991 
L 2875 3500 
L 3609 3500 
L 1753 1863 
L 3688 0 
L 2938 0 
L 1159 1709 
L 1159 0 
L 581 0 
L 581 4863 
z
" transform="scale(0.015625)"/>
      <path id="DejaVuSans-64" d="M 2906 2969 
L 2906 4863 
L 3481 4863 
L 3481 0 
L 2906 0 
L 2906 525 
Q 2725 213 2448 61 
Q 2172 -91 1784 -91 
Q 1150 -91 751 415 
Q 353 922 353 1747 
Q 353 2572 751 3078 
Q 1150 3584 1784 3584 
Q 2172 3584 2448 3432 
Q 2725 3281 2906 2969 
z
M 947 1747 
Q 947 1113 1208 752 
Q 1469 391 1925 391 
Q 2381 391 2643 752 
Q 2906 1113 2906 1747 
Q 2906 2381 2643 2742 
Q 2381 3103 1925 3103 
Q 1469 3103 1208 2742 
Q 947 2381 947 1747 
z
" transform="scale(0.015625)"/>
      <path id="DejaVuSans-6f" d="M 1959 3097 
Q 1497 3097 1228 2736 
Q 959 2375 959 1747 
Q 959 1119 1226 758 
Q 1494 397 1959 397 
Q 2419 397 2687 759 
Q 2956 1122 2956 1747 
Q 2956 2369 2687 2733 
Q 2419 3097 1959 3097 
z
M 1959 3584 
Q 2709 3584 3137 3096 
Q 3566 2609 3566 1747 
Q 3566 888 3137 398 
Q 2709 -91 1959 -91 
Q 1206 -91 779 398 
Q 353 888 353 1747 
Q 353 2609 779 3096 
Q 1206 3584 1959 3584 
z
" transform="scale(0.015625)"/>
     </defs>
     <use xlink:href="#DejaVuSans-50"/>
     <use xlink:href="#DejaVuSans-61" x="55.802734"/>
     <use xlink:href="#DejaVuSans-75" x="117.082031"/>
     <use xlink:href="#DejaVuSans-73" x="180.460938"/>
     <use xlink:href="#DejaVuSans-65" x="232.560547"/>
     <use xlink:href="#DejaVuSans-20" x="294.083984"/>
     <use xlink:href="#DejaVuSans-2d" x="325.871094"/>
     <use xlink:href="#DejaVuSans-20" x="361.955078"/>
     <use xlink:href="#DejaVuSans-73" x="393.742188"/>
     <use xlink:href="#DejaVuSans-70" x="445.841797"/>
     <use xlink:href="#DejaVuSans-61" x="509.318359"/>
     <use xlink:href="#DejaVuSans-63" x="570.597656"/>
     <use xlink:href="#DejaVuSans-65" x="625.578125"/>
     <use xlink:href="#DejaVuSans-2c" x="687.101562"/>
     <use xlink:href="#DejaVuSans-20" x="718.888672"/>
     <use xlink:href="#DejaVuSans-71" x="750.675781"/>
     <use xlink:href="#DejaVuSans-20" x="814.152344"/>
     <use xlink:href="#DejaVuSans-2d" x="845.939453"/>
     <use xlink:href="#DejaVuSans-20" x="882.023438"/>
     <use xlink:href="#DejaVuSans-71" x="913.810547"/>
     <use xlink:href="#DejaVuSans-75" x="977.287109"/>
     <use xlink:href="#DejaVuSans-69" x="1040.666016"/>
     <use xlink:href="#DejaVuSans-74" x="1068.449219"/>
     <use xlink:href="#DejaVuSans-2c" x="1107.658203"/>
     <use xlink:href="#DejaVuSans-20" x="1139.445312"/>
     <use xlink:href="#DejaVuSans-63" x="1171.232422"/>
     <use xlink:href="#DejaVuSans-6c" x="1226.212891"/>
     <use xlink:href="#DejaVuSans-69" x="1253.996094"/>
     <use xlink:href="#DejaVuSans-63" x="1281.779297"/>
     <use xlink:href="#DejaVuSans-6b" x="1336.759766"/>
     <use xlink:href="#DejaVuSans-20" x="1394.669922"/>
     <use xlink:href="#DejaVuSans-2d" x="1426.457031"/>
     <use xlink:href="#DejaVuSans-20" x="1462.541016"/>
     <use xlink:href="#DejaVuSans-64" x="1494.328125"/>
     <use xlink:href="#DejaVuSans-61" x="1557.804688"/>
     <use xlink:href="#DejaVuSans-74" x="1619.083984"/>
     <use xlink:href="#DejaVuSans-61" x="1658.292969"/>
     <use xlink:href="#DejaVuSans-20" x="1719.572266"/>
     <use xlink:href="#DejaVuSans-63" x="1751.359375"/>
     <use xlink:href="#DejaVuSans-75" x="1806.339844"/>
     <use xlink:href="#DejaVuSans-72" x="1869.71875"/>
     <use xlink:href="#DejaVuSans-73" x="1910.832031"/>
     <use xlink:href="#DejaVuSans-6f" x="1962.931641"/>
     <use xlink:href="#DejaVuSans-72" x="2024.113281"/>
    </g>
   </g>
  </g>
  <g id="axes_2">
   <g id="patch_11">
    <path d="M 398.894318 321.5356 
L 702.9 321.5356 
L 702.9 26.0736 
L 398.894318 26.0736 
z
" style="fill: #ffffff"/>
   </g>
   <g id="matplotlib.axis_3">
    <g id="xtick_9">
     <g id="line2d_20">
      <g>
       <use xlink:href="#mc89a8477c8" x="398.894318" y="321.5356" style="stroke: #000000; stroke-width: 0.8"/>
      </g>
     </g>
     <g id="text_22">
      <!-- 0 -->
      <g transform="translate(395.713068 336.134038) scale(0.1 -0.1)">
       <use xlink:href="#DejaVuSans-30"/>
      </g>
     </g>
    </g>
    <g id="xtick_10">
     <g id="line2d_21">
      <g>
       <use xlink:href="#mc89a8477c8" x="449.561932" y="321.5356" style="stroke: #000000; stroke-width: 0.8"/>
      </g>
     </g>
     <g id="text_23">
      <!-- 5 -->
      <g transform="translate(446.380682 336.134038) scale(0.1 -0.1)">
       <defs>
        <path id="DejaVuSans-35" d="M 691 4666 
L 3169 4666 
L 3169 4134 
L 1269 4134 
L 1269 2991 
Q 1406 3038 1543 3061 
Q 1681 3084 1819 3084 
Q 2600 3084 3056 2656 
Q 3513 2228 3513 1497 
Q 3513 744 3044 326 
Q 2575 -91 1722 -91 
Q 1428 -91 1123 -41 
Q 819 9 494 109 
L 494 744 
Q 775 591 1075 516 
Q 1375 441 1709 441 
Q 2250 441 2565 725 
Q 2881 1009 2881 1497 
Q 2881 1984 2565 2268 
Q 2250 2553 1709 2553 
Q 1456 2553 1204 2497 
Q 953 2441 691 2322 
L 691 4666 
z
" transform="scale(0.015625)"/>
       </defs>
       <use xlink:href="#DejaVuSans-35"/>
      </g>
     </g>
    </g>
    <g id="xtick_11">
     <g id="line2d_22">
      <g>
       <use xlink:href="#mc89a8477c8" x="500.229545" y="321.5356" style="stroke: #000000; stroke-width: 0.8"/>
      </g>
     </g>
     <g id="text_24">
      <!-- 10 -->
      <g transform="translate(493.867045 336.134038) scale(0.1 -0.1)">
       <use xlink:href="#DejaVuSans-31"/>
       <use xlink:href="#DejaVuSans-30" x="63.623047"/>
      </g>
     </g>
    </g>
    <g id="xtick_12">
     <g id="line2d_23">
      <g>
       <use xlink:href="#mc89a8477c8" x="550.897159" y="321.5356" style="stroke: #000000; stroke-width: 0.8"/>
      </g>
     </g>
     <g id="text_25">
      <!-- 15 -->
      <g transform="translate(544.534659 336.134038) scale(0.1 -0.1)">
       <use xlink:href="#DejaVuSans-31"/>
       <use xlink:href="#DejaVuSans-35" x="63.623047"/>
      </g>
     </g>
    </g>
    <g id="xtick_13">
     <g id="line2d_24">
      <g>
       <use xlink:href="#mc89a8477c8" x="601.564773" y="321.5356" style="stroke: #000000; stroke-width: 0.8"/>
      </g>
     </g>
     <g id="text_26">
      <!-- 20 -->
      <g transform="translate(595.202273 336.134038) scale(0.1 -0.1)">
       <use xlink:href="#DejaVuSans-32"/>
       <use xlink:href="#DejaVuSans-30" x="63.623047"/>
      </g>
     </g>
    </g>
    <g id="xtick_14">
     <g id="line2d_25">
      <g>
       <use xlink:href="#mc89a8477c8" x="652.232386" y="321.5356" style="stroke: #000000; stroke-width: 0.8"/>
      </g>
     </g>
     <g id="text_27">
      <!-- 25 -->
      <g transform="translate(645.869886 336.134038) scale(0.1 -0.1)">
       <use xlink:href="#DejaVuSans-32"/>
       <use xlink:href="#DejaVuSans-35" x="63.623047"/>
      </g>
     </g>
    </g>
    <g id="xtick_15">
     <g id="line2d_26">
      <g>
       <use xlink:href="#mc89a8477c8" x="702.9" y="321.5356" style="stroke: #000000; stroke-width: 0.8"/>
      </g>
     </g>
     <g id="text_28">
      <!-- 30 -->
      <g transform="translate(696.5375 336.134038) scale(0.1 -0.1)">
       <defs>
        <path id="DejaVuSans-33" d="M 2597 2516 
Q 3050 2419 3304 2112 
Q 3559 1806 3559 1356 
Q 3559 666 3084 287 
Q 2609 -91 1734 -91 
Q 1441 -91 1130 -33 
Q 819 25 488 141 
L 488 750 
Q 750 597 1062 519 
Q 1375 441 1716 441 
Q 2309 441 2620 675 
Q 2931 909 2931 1356 
Q 2931 1769 2642 2001 
Q 2353 2234 1838 2234 
L 1294 2234 
L 1294 2753 
L 1863 2753 
Q 2328 2753 2575 2939 
Q 2822 3125 2822 3475 
Q 2822 3834 2567 4026 
Q 2313 4219 1838 4219 
Q 1578 4219 1281 4162 
Q 984 4106 628 3988 
L 628 4550 
Q 988 4650 1302 4700 
Q 1616 4750 1894 4750 
Q 2613 4750 3031 4423 
Q 3450 4097 3450 3541 
Q 3450 3153 3228 2886 
Q 3006 2619 2597 2516 
z
" transform="scale(0.015625)"/>
       </defs>
       <use xlink:href="#DejaVuSans-33"/>
       <use xlink:href="#DejaVuSans-30" x="63.623047"/>
      </g>
     </g>
    </g>
    <g id="text_29">
     <!-- t [s] -->
     <g transform="translate(540.84169 349.812163) scale(0.1 -0.1)">
      <use xlink:href="#DejaVuSans-74"/>
      <use xlink:href="#DejaVuSans-20" x="39.208984"/>
      <use xlink:href="#DejaVuSans-5b" x="70.996094"/>
      <use xlink:href="#DejaVuSans-73" x="110.009766"/>
      <use xlink:href="#DejaVuSans-5d" x="162.109375"/>
     </g>
    </g>
   </g>
   <g id="matplotlib.axis_4">
    <g id="ytick_9">
     <g id="line2d_27">
      <g>
       <use xlink:href="#m048a1d1de7" x="398.894318" y="285.722024" style="stroke: #000000; stroke-width: 0.8"/>
      </g>
     </g>
     <g id="text_30">
      <!-- −2 -->
      <g transform="translate(377.152131 289.521243) scale(0.1 -0.1)">
       <use xlink:href="#DejaVuSans-2212"/>
       <use xlink:href="#DejaVuSans-32" x="83.789062"/>
      </g>
     </g>
    </g>
    <g id="ytick_10">
     <g id="line2d_28">
      <g>
       <use xlink:href="#m048a1d1de7" x="398.894318" y="229.763312" style="stroke: #000000; stroke-width: 0.8"/>
      </g>
     </g>
     <g id="text_31">
      <!-- −1 -->
      <g transform="translate(377.152131 233.562531) scale(0.1 -0.1)">
       <use xlink:href="#DejaVuSans-2212"/>
       <use xlink:href="#DejaVuSans-31" x="83.789062"/>
      </g>
     </g>
    </g>
    <g id="ytick_11">
     <g id="line2d_29">
      <g>
       <use xlink:href="#m048a1d1de7" x="398.894318" y="173.8046" style="stroke: #000000; stroke-width: 0.8"/>
      </g>
     </g>
     <g id="text_32">
      <!-- 0 -->
      <g transform="translate(385.531818 177.603819) scale(0.1 -0.1)">
       <use xlink:href="#DejaVuSans-30"/>
      </g>
     </g>
    </g>
    <g id="ytick_12">
     <g id="line2d_30">
      <g>
       <use xlink:href="#m048a1d1de7" x="398.894318" y="117.845888" style="stroke: #000000; stroke-width: 0.8"/>
      </g>
     </g>
     <g id="text_33">
      <!-- 1 -->
      <g transform="translate(385.531818 121.645107) scale(0.1 -0.1)">
       <use xlink:href="#DejaVuSans-31"/>
      </g>
     </g>
    </g>
    <g id="ytick_13">
     <g id="line2d_31">
      <g>
       <use xlink:href="#m048a1d1de7" x="398.894318" y="61.887176" style="stroke: #000000; stroke-width: 0.8"/>
      </g>
     </g>
     <g id="text_34">
      <!-- 2 -->
      <g transform="translate(385.531818 65.686395) scale(0.1 -0.1)">
       <use xlink:href="#DejaVuSans-32"/>
      </g>
     </g>
    </g>
   </g>
   <g id="line2d_32">
    <path d="M 398.894318 173.8046 
L 702.9 173.8046 
" clip-path="url(#pe92615dd25)" style="fill: none; stroke-dasharray: 2.775,1.2; stroke-dashoffset: 0; stroke: #000000; stroke-width: 0.75"/>
   </g>
   <g id="line2d_33">
    <path d="M 398.894318 94.66703 
L 400.006483 94.570058 
L 401.019836 94.088088 
L 402.033188 95.047146 
L 402.539864 95.618041 
L 404.059892 95.828599 
L 405.579921 97.349325 
L 406.086597 97.670082 
L 410.140006 102.562481 
L 419.260176 113.62577 
L 420.780205 111.993577 
L 421.793557 113.034663 
L 423.820262 115.475504 
L 424.833614 114.355518 
L 425.34029 113.759273 
L 426.353642 114.877445 
L 429.900375 119.153383 
L 430.913728 118.096437 
L 431.420404 117.539161 
L 432.433756 118.662368 
L 450.674097 140.748794 
L 451.687449 139.743044 
L 452.194125 139.217008 
L 453.207478 140.298168 
L 453.714154 140.907811 
L 454.727506 139.82534 
L 455.234182 139.2385 
L 456.247534 140.362041 
L 456.754211 140.976871 
L 457.767563 140.458506 
L 458.274239 140.170534 
L 459.794267 141.933802 
L 460.80762 141.170874 
L 461.314296 140.752037 
L 462.327648 141.886881 
L 465.874381 146.159068 
L 466.887733 145.491214 
L 467.394409 145.123942 
L 468.407762 146.268983 
L 473.981199 152.85806 
L 474.994551 153.925522 
L 476.51458 153.377828 
L 478.034608 154.838019 
L 480.061313 156.695885 
L 482.594694 158.75369 
L 485.63475 160.895046 
L 488.674807 162.732197 
L 488.674807 162.732197 
" clip-path="url(#pe92615dd25)" style="fill: none; stroke: #0000ff; stroke-width: 0.5; stroke-linecap: square"/>
   </g>
   <g id="line2d_34">
    <path d="M 398.894318 85.949422 
L 398.905465 85.963866 
L 401.019836 89.457627 
L 402.539864 112.652698 
L 403.04654 113.661078 
L 404.059892 114.286311 
L 405.073245 129.482822 
L 405.579921 130.117311 
L 406.086597 130.01854 
L 407.099949 115.934448 
L 407.606625 121.482233 
L 408.113301 128.325858 
L 409.126654 113.781642 
L 409.63333 120.279266 
L 410.140006 128.225403 
L 410.646682 127.932294 
L 411.153358 126.8129 
L 412.166711 120.221881 
L 412.673387 122.951768 
L 413.180063 126.296342 
L 413.686739 124.278394 
L 414.193415 121.722657 
L 414.700091 123.460385 
L 415.206767 125.628688 
L 415.713444 124.405778 
L 416.22012 122.842775 
L 417.233472 137.868331 
L 417.740148 131.370708 
L 418.246824 123.424571 
L 418.7535 123.461686 
L 419.260176 124.299414 
L 420.273529 109.207752 
L 420.780205 101.261615 
L 421.286881 107.759238 
L 422.300233 123.651512 
L 422.806909 125.132992 
L 423.820262 126.799315 
L 425.34029 149.989408 
L 425.846966 143.491786 
L 426.860319 127.599511 
L 427.873671 121.336227 
L 428.380347 118.434472 
L 429.393699 130.799809 
L 429.900375 137.416249 
L 430.913728 122.851354 
L 431.420404 114.90525 
L 431.92708 121.402875 
L 432.940432 137.295149 
L 433.447108 130.797527 
L 434.460461 114.905252 
L 434.967137 121.402875 
L 435.980489 137.295149 
L 436.487165 130.797527 
L 437.500517 114.905252 
L 438.007194 121.402875 
L 439.020546 137.295149 
L 439.527222 130.797527 
L 440.033898 122.85139 
L 440.540574 125.488806 
L 441.553926 132.886416 
L 442.567279 121.731498 
L 443.073955 115.711106 
L 444.087307 130.33039 
L 444.593983 138.276527 
L 445.100659 131.778904 
L 446.114012 115.88663 
L 446.620688 122.384253 
L 447.63404 138.276527 
L 448.140716 131.778904 
L 449.154069 115.88663 
L 449.660745 122.384253 
L 452.194125 162.114938 
L 452.700801 155.617316 
L 453.714154 139.725041 
L 455.234182 122.72823 
L 456.247534 134.79746 
L 456.754211 141.387336 
L 457.767563 126.875885 
L 458.274239 118.959046 
L 458.780915 125.459339 
L 459.794267 141.351613 
L 460.300944 137.064206 
L 461.314296 126.035671 
L 461.820972 128.883954 
L 462.834324 136.257824 
L 463.847676 124.796354 
L 464.354353 118.615936 
L 465.367705 133.220633 
L 465.874381 141.16677 
L 466.381057 136.441773 
L 467.394409 124.450291 
L 468.407762 136.696151 
L 468.914438 143.397736 
L 469.92779 128.84054 
L 470.434466 120.894403 
L 470.941142 127.392026 
L 471.954495 143.2843 
L 472.461171 136.786678 
L 473.474523 120.894403 
L 473.981199 127.392026 
L 474.994551 143.2843 
L 475.501228 136.786678 
L 476.51458 120.894403 
L 477.021256 127.392026 
L 478.034608 143.2843 
L 478.541284 136.786678 
L 479.554637 120.894403 
L 480.061313 127.392026 
L 480.567989 135.338163 
L 481.074665 136.533134 
L 481.581341 137.051053 
L 482.594694 135.402923 
L 483.608046 137.419618 
L 484.114722 137.008511 
L 484.621398 136.44597 
L 485.63475 137.8116 
L 486.648103 137.347866 
L 487.661455 138.303503 
L 488.674807 138.148243 
L 488.674807 138.148243 
" clip-path="url(#pe92615dd25)" style="fill: none; stroke: #ff0000; stroke-width: 0.5; stroke-linecap: square"/>
   </g>
   <g id="patch_12">
    <path d="M 398.894318 321.5356 
L 398.894318 26.0736 
" style="fill: none; stroke: #000000; stroke-width: 0.8; stroke-linejoin: miter; stroke-linecap: square"/>
   </g>
   <g id="patch_13">
    <path d="M 702.9 321.5356 
L 702.9 26.0736 
" style="fill: none; stroke: #000000; stroke-width: 0.8; stroke-linejoin: miter; stroke-linecap: square"/>
   </g>
   <g id="patch_14">
    <path d="M 398.894318 321.5356 
L 702.9 321.5356 
" style="fill: none; stroke: #000000; stroke-width: 0.8; stroke-linejoin: miter; stroke-linecap: square"/>
   </g>
   <g id="patch_15">
    <path d="M 398.894318 26.0736 
L 702.9 26.0736 
" style="fill: none; stroke: #000000; stroke-width: 0.8; stroke-linejoin: miter; stroke-linecap: square"/>
   </g>
   <g id="legend_1">
    <g id="patch_16">
     <path d="M 608.4 63.851725 
L 695.9 63.851725 
Q 697.9 63.851725 697.9 61.851725 
L 697.9 33.0736 
Q 697.9 31.0736 695.9 31.0736 
L 608.4 31.0736 
Q 606.4 31.0736 606.4 33.0736 
L 606.4 61.851725 
Q 606.4 63.851725 608.4 63.851725 
z
" style="fill: #ffffff; opacity: 0.8; stroke: #cccccc; stroke-linejoin: miter"/>
    </g>
    <g id="line2d_35">
     <path d="M 610.4 39.2736 
L 620.4 39.2736 
L 630.4 39.2736 
" style="fill: none; stroke: #0000ff; stroke-width: 0.5; stroke-linecap: square"/>
    </g>
    <g id="text_35">
     <!-- $\Vert(x,y)\Vert$ [m] -->
     <g transform="translate(638.4 42.7736) scale(0.1 -0.1)">
      <defs>
       <path id="DejaVuSans-2016" d="M 1344 4891 
L 1344 -1509 
L 813 -1509 
L 813 4891 
L 1344 4891 
z
M 2376 4891 
L 2376 -1509 
L 1845 -1509 
L 1845 4891 
L 2376 4891 
z
" transform="scale(0.015625)"/>
       <path id="DejaVuSans-28" d="M 1984 4856 
Q 1566 4138 1362 3434 
Q 1159 2731 1159 2009 
Q 1159 1288 1364 580 
Q 1569 -128 1984 -844 
L 1484 -844 
Q 1016 -109 783 600 
Q 550 1309 550 2009 
Q 550 2706 781 3412 
Q 1013 4119 1484 4856 
L 1984 4856 
z
" transform="scale(0.015625)"/>
       <path id="DejaVuSans-Oblique-78" d="M 3841 3500 
L 2234 1784 
L 3219 0 
L 2559 0 
L 1819 1388 
L 531 0 
L -166 0 
L 1556 1844 
L 641 3500 
L 1300 3500 
L 1972 2234 
L 3144 3500 
L 3841 3500 
z
" transform="scale(0.015625)"/>
       <path id="DejaVuSans-Oblique-79" d="M 1588 -325 
Q 1188 -997 936 -1164 
Q 684 -1331 294 -1331 
L -159 -1331 
L -63 -850 
L 269 -850 
Q 509 -850 678 -719 
Q 847 -588 1056 -206 
L 1234 128 
L 459 3500 
L 1069 3500 
L 1650 819 
L 3256 3500 
L 3859 3500 
L 1588 -325 
z
" transform="scale(0.015625)"/>
       <path id="DejaVuSans-29" d="M 513 4856 
L 1013 4856 
Q 1481 4119 1714 3412 
Q 1947 2706 1947 2009 
Q 1947 1309 1714 600 
Q 1481 -109 1013 -844 
L 513 -844 
Q 928 -128 1133 580 
Q 1338 1288 1338 2009 
Q 1338 2731 1133 3434 
Q 928 4138 513 4856 
z
" transform="scale(0.015625)"/>
      </defs>
      <use xlink:href="#DejaVuSans-2016" transform="translate(0 0.578125)"/>
      <use xlink:href="#DejaVuSans-28" transform="translate(50 0.578125)"/>
      <use xlink:href="#DejaVuSans-Oblique-78" transform="translate(89.013672 0.578125)"/>
      <use xlink:href="#DejaVuSans-2c" transform="translate(148.193359 0.578125)"/>
      <use xlink:href="#DejaVuSans-Oblique-79" transform="translate(199.462891 0.578125)"/>
      <use xlink:href="#DejaVuSans-29" transform="translate(258.642578 0.578125)"/>
      <use xlink:href="#DejaVuSans-2016" transform="translate(297.65625 0.578125)"/>
      <use xlink:href="#DejaVuSans-20" transform="translate(347.65625 0.578125)"/>
      <use xlink:href="#DejaVuSans-5b" transform="translate(379.443359 0.578125)"/>
      <use xlink:href="#DejaVuSans-6d" transform="translate(418.457031 0.578125)"/>
      <use xlink:href="#DejaVuSans-5d" transform="translate(515.869141 0.578125)"/>
     </g>
    </g>
    <g id="line2d_36">
     <path d="M 610.4 54.272038 
L 620.4 54.272038 
L 630.4 54.272038 
" style="fill: none; stroke: #ff0000; stroke-width: 0.5; stroke-linecap: square"/>
    </g>
    <g id="text_36">
     <!-- $\alpha$ [rad] -->
     <g transform="translate(638.4 57.772038) scale(0.1 -0.1)">
      <defs>
       <path id="DejaVuSans-Oblique-3b1" d="M 2619 1628 
L 2622 2350 
Q 2625 3088 2069 3091 
Q 1653 3094 1394 2747 
Q 1069 2319 959 1747 
Q 825 1059 994 731 
Q 1169 397 1547 397 
Q 1966 397 2319 1063 
L 2619 1628 
z
M 2166 3578 
Q 3141 3594 3128 2584 
Q 3128 2584 3616 3500 
L 4128 3500 
L 3119 1603 
L 3109 919 
Q 3109 766 3194 638 
Q 3291 488 3391 488 
L 3669 488 
L 3575 0 
L 3228 0 
Q 2934 0 2722 263 
Q 2622 394 2619 669 
Q 2416 334 2066 50 
Q 1900 -81 1453 -78 
Q 722 -72 456 397 
Q 184 884 353 1747 
Q 534 2675 1009 3097 
Q 1544 3569 2166 3578 
z
" transform="scale(0.015625)"/>
      </defs>
      <use xlink:href="#DejaVuSans-Oblique-3b1" transform="translate(0 0.015625)"/>
      <use xlink:href="#DejaVuSans-20" transform="translate(65.917969 0.015625)"/>
      <use xlink:href="#DejaVuSans-5b" transform="translate(97.705078 0.015625)"/>
      <use xlink:href="#DejaVuSans-72" transform="translate(136.71875 0.015625)"/>
      <use xlink:href="#DejaVuSans-61" transform="translate(177.832031 0.015625)"/>
      <use xlink:href="#DejaVuSans-64" transform="translate(239.111328 0.015625)"/>
      <use xlink:href="#DejaVuSans-5d" transform="translate(302.587891 0.015625)"/>
     </g>
    </g>
   </g>
  </g>
  <g id="axes_3">
   <g id="patch_17">
    <path d="M 55.271818 657.6988 
L 359.2775 657.6988 
L 359.2775 362.2368 
L 55.271818 362.2368 
z
" style="fill: #ffffff"/>
   </g>
   <g id="matplotlib.axis_5">
    <g id="xtick_16">
     <g id="line2d_37">
      <g>
       <use xlink:href="#mc89a8477c8" x="55.271818" y="657.6988" style="stroke: #000000; stroke-width: 0.8"/>
      </g>
     </g>
     <g id="text_37">
      <!-- 0 -->
      <g transform="translate(52.090568 672.297238) scale(0.1 -0.1)">
       <use xlink:href="#DejaVuSans-30"/>
      </g>
     </g>
    </g>
    <g id="xtick_17">
     <g id="line2d_38">
      <g>
       <use xlink:href="#mc89a8477c8" x="105.939432" y="657.6988" style="stroke: #000000; stroke-width: 0.8"/>
      </g>
     </g>
     <g id="text_38">
      <!-- 5 -->
      <g transform="translate(102.758182 672.297238) scale(0.1 -0.1)">
       <use xlink:href="#DejaVuSans-35"/>
      </g>
     </g>
    </g>
    <g id="xtick_18">
     <g id="line2d_39">
      <g>
       <use xlink:href="#mc89a8477c8" x="156.607045" y="657.6988" style="stroke: #000000; stroke-width: 0.8"/>
      </g>
     </g>
     <g id="text_39">
      <!-- 10 -->
      <g transform="translate(150.244545 672.297238) scale(0.1 -0.1)">
       <use xlink:href="#DejaVuSans-31"/>
       <use xlink:href="#DejaVuSans-30" x="63.623047"/>
      </g>
     </g>
    </g>
    <g id="xtick_19">
     <g id="line2d_40">
      <g>
       <use xlink:href="#mc89a8477c8" x="207.274659" y="657.6988" style="stroke: #000000; stroke-width: 0.8"/>
      </g>
     </g>
     <g id="text_40">
      <!-- 15 -->
      <g transform="translate(200.912159 672.297238) scale(0.1 -0.1)">
       <use xlink:href="#DejaVuSans-31"/>
       <use xlink:href="#DejaVuSans-35" x="63.623047"/>
      </g>
     </g>
    </g>
    <g id="xtick_20">
     <g id="line2d_41">
      <g>
       <use xlink:href="#mc89a8477c8" x="257.942273" y="657.6988" style="stroke: #000000; stroke-width: 0.8"/>
      </g>
     </g>
     <g id="text_41">
      <!-- 20 -->
      <g transform="translate(251.579773 672.297238) scale(0.1 -0.1)">
       <use xlink:href="#DejaVuSans-32"/>
       <use xlink:href="#DejaVuSans-30" x="63.623047"/>
      </g>
     </g>
    </g>
    <g id="xtick_21">
     <g id="line2d_42">
      <g>
       <use xlink:href="#mc89a8477c8" x="308.609886" y="657.6988" style="stroke: #000000; stroke-width: 0.8"/>
      </g>
     </g>
     <g id="text_42">
      <!-- 25 -->
      <g transform="translate(302.247386 672.297238) scale(0.1 -0.1)">
       <use xlink:href="#DejaVuSans-32"/>
       <use xlink:href="#DejaVuSans-35" x="63.623047"/>
      </g>
     </g>
    </g>
    <g id="xtick_22">
     <g id="line2d_43">
      <g>
       <use xlink:href="#mc89a8477c8" x="359.2775" y="657.6988" style="stroke: #000000; stroke-width: 0.8"/>
      </g>
     </g>
     <g id="text_43">
      <!-- 30 -->
      <g transform="translate(352.915 672.297238) scale(0.1 -0.1)">
       <use xlink:href="#DejaVuSans-33"/>
       <use xlink:href="#DejaVuSans-30" x="63.623047"/>
      </g>
     </g>
    </g>
    <g id="text_44">
     <!-- t [s] -->
     <g transform="translate(197.21919 685.975363) scale(0.1 -0.1)">
      <use xlink:href="#DejaVuSans-74"/>
      <use xlink:href="#DejaVuSans-20" x="39.208984"/>
      <use xlink:href="#DejaVuSans-5b" x="70.996094"/>
      <use xlink:href="#DejaVuSans-73" x="110.009766"/>
      <use xlink:href="#DejaVuSans-5d" x="162.109375"/>
     </g>
    </g>
   </g>
   <g id="matplotlib.axis_6">
    <g id="ytick_14">
     <g id="line2d_44">
      <g>
       <use xlink:href="#m048a1d1de7" x="55.271818" y="657.6988" style="stroke: #000000; stroke-width: 0.8"/>
      </g>
     </g>
     <g id="text_45">
      <!-- $\mathdefault{0}$ -->
      <g transform="translate(41.871818 661.498019) scale(0.1 -0.1)">
       <use xlink:href="#DejaVuSans-30" transform="translate(0 0.78125)"/>
      </g>
     </g>
    </g>
    <g id="ytick_15">
     <g id="line2d_45">
      <g>
       <use xlink:href="#m048a1d1de7" x="55.271818" y="625.897418" style="stroke: #000000; stroke-width: 0.8"/>
      </g>
     </g>
     <g id="text_46">
      <!-- $\mathdefault{10^{0}}$ -->
      <g transform="translate(30.671818 629.696637) scale(0.1 -0.1)">
       <use xlink:href="#DejaVuSans-31" transform="translate(0 0.765625)"/>
       <use xlink:href="#DejaVuSans-30" transform="translate(63.623047 0.765625)"/>
       <use xlink:href="#DejaVuSans-30" transform="translate(128.203125 39.046875) scale(0.7)"/>
      </g>
     </g>
    </g>
    <g id="ytick_16">
     <g id="line2d_46">
      <g>
       <use xlink:href="#m048a1d1de7" x="55.271818" y="554.085255" style="stroke: #000000; stroke-width: 0.8"/>
      </g>
     </g>
     <g id="text_47">
      <!-- $\mathdefault{10^{1}}$ -->
      <g transform="translate(30.671818 557.884474) scale(0.1 -0.1)">
       <use xlink:href="#DejaVuSans-31" transform="translate(0 0.684375)"/>
       <use xlink:href="#DejaVuSans-30" transform="translate(63.623047 0.684375)"/>
       <use xlink:href="#DejaVuSans-31" transform="translate(128.203125 38.965625) scale(0.7)"/>
      </g>
     </g>
    </g>
    <g id="ytick_17">
     <g id="line2d_47">
      <g>
       <use xlink:href="#m048a1d1de7" x="55.271818" y="496.842768" style="stroke: #000000; stroke-width: 0.8"/>
      </g>
     </g>
     <g id="text_48">
      <!-- $\mathdefault{10^{2}}$ -->
      <g transform="translate(30.671818 500.641987) scale(0.1 -0.1)">
       <use xlink:href="#DejaVuSans-31" transform="translate(0 0.765625)"/>
       <use xlink:href="#DejaVuSans-30" transform="translate(63.623047 0.765625)"/>
       <use xlink:href="#DejaVuSans-32" transform="translate(128.203125 39.046875) scale(0.7)"/>
      </g>
     </g>
    </g>
    <g id="ytick_18">
     <g id="line2d_48">
      <g>
       <use xlink:href="#m048a1d1de7" x="55.271818" y="439.600281" style="stroke: #000000; stroke-width: 0.8"/>
      </g>
     </g>
     <g id="text_49">
      <!-- $\mathdefault{10^{3}}$ -->
      <g transform="translate(30.671818 443.399499) scale(0.1 -0.1)">
       <use xlink:href="#DejaVuSans-31" transform="translate(0 0.765625)"/>
       <use xlink:href="#DejaVuSans-30" transform="translate(63.623047 0.765625)"/>
       <use xlink:href="#DejaVuSans-33" transform="translate(128.203125 39.046875) scale(0.7)"/>
      </g>
     </g>
    </g>
    <g id="ytick_19">
     <g id="line2d_49">
      <g>
       <use xlink:href="#m048a1d1de7" x="55.271818" y="382.357793" style="stroke: #000000; stroke-width: 0.8"/>
      </g>
     </g>
     <g id="text_50">
      <!-- $\mathdefault{10^{4}}$ -->
      <g transform="translate(30.671818 386.157012) scale(0.1 -0.1)">
       <use xlink:href="#DejaVuSans-31" transform="translate(0 0.684375)"/>
       <use xlink:href="#DejaVuSans-30" transform="translate(63.623047 0.684375)"/>
       <use xlink:href="#DejaVuSans-34" transform="translate(128.203125 38.965625) scale(0.7)"/>
      </g>
     </g>
    </g>
   </g>
   <g id="line2d_50">
    <path d="M 55.271818 591.206749 
L 56.890659 591.183945 
L 57.397336 591.095484 
L 58.917364 593.221092 
L 59.930716 593.376606 
L 60.437392 593.423465 
L 60.944069 594.07934 
L 61.450745 595.792587 
L 62.464097 596.884294 
L 62.970773 597.155114 
L 63.477449 597.266172 
L 64.490801 600.424647 
L 64.997478 600.717563 
L 65.504154 600.695003 
L 66.517506 604.02277 
L 67.530858 605.624732 
L 68.544211 606.559581 
L 69.557563 608.58617 
L 70.064239 608.949823 
L 70.570915 609.080698 
L 71.077591 609.421452 
L 71.584267 609.461231 
L 72.090944 608.672123 
L 73.104296 605.442615 
L 73.610972 602.45064 
L 74.117648 596.286182 
L 75.131 587.832734 
L 75.637676 583.455644 
L 76.651029 590.378641 
L 77.157705 592.948668 
L 77.664381 590.796425 
L 78.171057 587.47943 
L 79.184409 578.379183 
L 80.197762 567.418451 
L 81.71779 582.407428 
L 82.224466 578.306927 
L 83.744495 561.459771 
L 86.277875 533.559892 
L 86.784551 537.613981 
L 87.797904 547.79442 
L 89.317932 532.478929 
L 90.837961 518.104151 
L 91.851313 509.812317 
L 93.371341 499.769319 
L 94.384694 494.379343 
L 95.398046 490.382118 
L 96.411398 487.534779 
L 96.918074 486.519352 
L 97.42475 485.854176 
L 97.931426 485.513118 
L 98.438103 485.468581 
L 98.944779 485.681149 
L 99.451455 486.146679 
L 99.958131 486.942629 
L 100.464807 488.074917 
L 100.971483 489.536778 
L 101.984836 493.411308 
L 102.998188 498.325144 
L 104.01154 504.513124 
L 105.531569 516.048579 
L 107.051597 530.284586 
L 108.571625 518.859432 
L 109.078301 522.200521 
L 110.091654 531.577864 
L 111.105006 522.800054 
L 111.611682 518.365757 
L 112.118358 522.212351 
L 113.131711 532.141179 
L 113.638387 530.249262 
L 114.651739 525.409771 
L 115.665091 535.186103 
L 116.171767 540.72732 
L 117.18512 533.888677 
L 117.691796 530.268378 
L 118.198472 534.809937 
L 119.7185 552.312153 
L 121.238529 571.908277 
L 122.251881 586.171851 
L 122.758557 582.693827 
L 123.771909 573.99034 
L 124.785262 587.458789 
L 125.291938 595.717193 
L 125.798614 611.217419 
L 126.30529 622.109931 
L 127.318642 636.706256 
L 127.825319 641.769197 
L 128.331995 645.434139 
L 128.838671 647.189486 
L 129.345347 648.07579 
L 129.852023 648.413456 
L 130.865375 651.174815 
L 131.372051 652.211823 
L 131.878728 651.645607 
L 132.89208 649.816579 
L 134.412108 652.842826 
L 134.918784 652.669482 
L 135.425461 652.237495 
L 135.932137 651.650186 
L 136.945489 653.334352 
L 137.958841 653.76078 
L 139.47887 654.07869 
L 139.985546 654.273139 
L 141.505574 654.544423 
L 142.518926 654.759834 
L 145.052307 655.162383 
L 145.052307 655.162383 
" clip-path="url(#p17a9502a88)" style="fill: none; stroke: #ff0000; stroke-width: 0.5; stroke-linecap: square"/>
   </g>
   <g id="line2d_51">
    <path d="M 55.271818 657.6988 
L 55.370631 636.267851 
L 58.410688 594.021151 
L 59.42404 589.362761 
L 60.437392 585.4592 
L 61.450745 582.213496 
L 62.970773 578.139516 
L 64.490801 574.749021 
L 66.01083 571.881459 
L 67.530858 569.466527 
L 69.557563 566.696178 
L 72.090944 563.727146 
L 74.117648 561.319089 
L 75.131 559.777779 
L 76.144353 558.046304 
L 78.677733 554.672759 
L 79.691086 552.614554 
L 80.704438 550.229453 
L 81.71779 548.763709 
L 82.731142 547.123413 
L 83.744495 544.740575 
L 84.757847 541.354 
L 85.771199 536.812646 
L 86.277875 534.129294 
L 86.784551 532.057234 
L 87.291228 530.484176 
L 88.30458 527.884318 
L 89.317932 524.393848 
L 90.331284 519.941658 
L 91.851313 511.820915 
L 95.904722 488.805718 
L 97.42475 481.763204 
L 98.944779 476.065729 
L 99.958131 473.000405 
L 100.971483 470.496861 
L 101.984836 468.515601 
L 102.998188 466.980589 
L 104.01154 465.832147 
L 105.024892 465.006041 
L 106.038245 464.42757 
L 113.131711 461.549074 
L 117.18512 460.41259 
L 118.705148 460.041272 
L 120.731853 459.819959 
L 125.798614 459.639764 
L 137.958841 459.59877 
L 145.052307 459.591099 
L 145.052307 459.591099 
" clip-path="url(#p17a9502a88)" style="fill: none; stroke: #008000; stroke-width: 0.5; stroke-linecap: square"/>
   </g>
   <g id="patch_18">
    <path d="M 55.271818 657.6988 
L 55.271818 362.2368 
" style="fill: none; stroke: #000000; stroke-width: 0.8; stroke-linejoin: miter; stroke-linecap: square"/>
   </g>
   <g id="patch_19">
    <path d="M 359.2775 657.6988 
L 359.2775 362.2368 
" style="fill: none; stroke: #000000; stroke-width: 0.8; stroke-linejoin: miter; stroke-linecap: square"/>
   </g>
   <g id="patch_20">
    <path d="M 55.271818 657.6988 
L 359.2775 657.6988 
" style="fill: none; stroke: #000000; stroke-width: 0.8; stroke-linejoin: miter; stroke-linecap: square"/>
   </g>
   <g id="patch_21">
    <path d="M 55.271818 362.2368 
L 359.2775 362.2368 
" style="fill: none; stroke: #000000; stroke-width: 0.8; stroke-linejoin: miter; stroke-linecap: square"/>
   </g>
   <g id="legend_2">
    <g id="patch_22">
     <path d="M 254.1775 403.814925 
L 352.2775 403.814925 
Q 354.2775 403.814925 354.2775 401.814925 
L 354.2775 369.2368 
Q 354.2775 367.2368 352.2775 367.2368 
L 254.1775 367.2368 
Q 252.1775 367.2368 252.1775 369.2368 
L 252.1775 401.814925 
Q 252.1775 403.814925 254.1775 403.814925 
z
" style="fill: #ffffff; opacity: 0.8; stroke: #cccccc; stroke-linejoin: miter"/>
    </g>
    <g id="line2d_52">
     <path d="M 256.1775 375.335238 
L 266.1775 375.335238 
L 276.1775 375.335238 
" style="fill: none; stroke: #ff0000; stroke-width: 0.5; stroke-linecap: square"/>
    </g>
    <g id="text_51">
     <!-- Run. obj. -->
     <g transform="translate(284.1775 378.835238) scale(0.1 -0.1)">
      <defs>
       <path id="DejaVuSans-52" d="M 2841 2188 
Q 3044 2119 3236 1894 
Q 3428 1669 3622 1275 
L 4263 0 
L 3584 0 
L 2988 1197 
Q 2756 1666 2539 1819 
Q 2322 1972 1947 1972 
L 1259 1972 
L 1259 0 
L 628 0 
L 628 4666 
L 2053 4666 
Q 2853 4666 3247 4331 
Q 3641 3997 3641 3322 
Q 3641 2881 3436 2590 
Q 3231 2300 2841 2188 
z
M 1259 4147 
L 1259 2491 
L 2053 2491 
Q 2509 2491 2742 2702 
Q 2975 2913 2975 3322 
Q 2975 3731 2742 3939 
Q 2509 4147 2053 4147 
L 1259 4147 
z
" transform="scale(0.015625)"/>
       <path id="DejaVuSans-6e" d="M 3513 2113 
L 3513 0 
L 2938 0 
L 2938 2094 
Q 2938 2591 2744 2837 
Q 2550 3084 2163 3084 
Q 1697 3084 1428 2787 
Q 1159 2491 1159 1978 
L 1159 0 
L 581 0 
L 581 3500 
L 1159 3500 
L 1159 2956 
Q 1366 3272 1645 3428 
Q 1925 3584 2291 3584 
Q 2894 3584 3203 3211 
Q 3513 2838 3513 2113 
z
" transform="scale(0.015625)"/>
       <path id="DejaVuSans-62" d="M 3116 1747 
Q 3116 2381 2855 2742 
Q 2594 3103 2138 3103 
Q 1681 3103 1420 2742 
Q 1159 2381 1159 1747 
Q 1159 1113 1420 752 
Q 1681 391 2138 391 
Q 2594 391 2855 752 
Q 3116 1113 3116 1747 
z
M 1159 2969 
Q 1341 3281 1617 3432 
Q 1894 3584 2278 3584 
Q 2916 3584 3314 3078 
Q 3713 2572 3713 1747 
Q 3713 922 3314 415 
Q 2916 -91 2278 -91 
Q 1894 -91 1617 61 
Q 1341 213 1159 525 
L 1159 0 
L 581 0 
L 581 4863 
L 1159 4863 
L 1159 2969 
z
" transform="scale(0.015625)"/>
       <path id="DejaVuSans-6a" d="M 603 3500 
L 1178 3500 
L 1178 -63 
Q 1178 -731 923 -1031 
Q 669 -1331 103 -1331 
L -116 -1331 
L -116 -844 
L 38 -844 
Q 366 -844 484 -692 
Q 603 -541 603 -63 
L 603 3500 
z
M 603 4863 
L 1178 4863 
L 1178 4134 
L 603 4134 
L 603 4863 
z
" transform="scale(0.015625)"/>
      </defs>
      <use xlink:href="#DejaVuSans-52"/>
      <use xlink:href="#DejaVuSans-75" x="64.982422"/>
      <use xlink:href="#DejaVuSans-6e" x="128.361328"/>
      <use xlink:href="#DejaVuSans-2e" x="191.740234"/>
      <use xlink:href="#DejaVuSans-20" x="223.527344"/>
      <use xlink:href="#DejaVuSans-6f" x="255.314453"/>
      <use xlink:href="#DejaVuSans-62" x="316.496094"/>
      <use xlink:href="#DejaVuSans-6a" x="379.972656"/>
      <use xlink:href="#DejaVuSans-2e" x="407.755859"/>
     </g>
    </g>
    <g id="line2d_53">
     <path d="M 256.1775 393.214925 
L 266.1775 393.214925 
L 276.1775 393.214925 
" style="fill: none; stroke: #008000; stroke-width: 0.5; stroke-linecap: square"/>
    </g>
    <g id="text_52">
     <!-- $\int \mathrm{Run.\,obj.} \,\mathrm{d}t$ -->
     <g transform="translate(284.1775 396.714925) scale(0.1 -0.1)">
      <defs>
       <path id="DejaVuSansDisplay-222b" d="M 2134 5525 
Q 2172 6263 2528 6556 
Q 2884 6850 3218 6850 
Q 3553 6850 3833 6575 
Q 4113 6300 4200 5678 
L 3544 5613 
Q 3469 6188 3219 6188 
Q 2906 6188 2869 5413 
L 2581 -597 
Q 2547 -1334 2187 -1628 
Q 1828 -1922 1497 -1922 
Q 1163 -1922 883 -1647 
Q 603 -1372 516 -750 
L 1172 -684 
Q 1247 -1259 1497 -1259 
Q 1809 -1259 1847 -488 
L 2134 5525 
z
" transform="scale(0.015625)"/>
       <path id="DejaVuSans-Oblique-74" d="M 2706 3500 
L 2619 3053 
L 1472 3053 
L 1100 1153 
Q 1081 1047 1072 975 
Q 1063 903 1063 863 
Q 1063 663 1183 572 
Q 1303 481 1569 481 
L 2150 481 
L 2053 0 
L 1503 0 
Q 991 0 739 200 
Q 488 400 488 806 
Q 488 878 497 964 
Q 506 1050 525 1153 
L 897 3053 
L 409 3053 
L 500 3500 
L 978 3500 
L 1172 4494 
L 1747 4494 
L 1556 3500 
L 2706 3500 
z
" transform="scale(0.015625)"/>
      </defs>
      <use xlink:href="#DejaVuSansDisplay-222b" transform="translate(0 0.96875)"/>
      <use xlink:href="#DejaVuSans-52" transform="translate(73.632812 0.96875)"/>
      <use xlink:href="#DejaVuSans-75" transform="translate(143.115234 0.96875)"/>
      <use xlink:href="#DejaVuSans-6e" transform="translate(206.494141 0.96875)"/>
      <use xlink:href="#DejaVuSans-2e" transform="translate(269.873047 0.96875)"/>
      <use xlink:href="#DejaVuSans-6f" transform="translate(337.378254 0.96875)"/>
      <use xlink:href="#DejaVuSans-62" transform="translate(398.559895 0.96875)"/>
      <use xlink:href="#DejaVuSans-6a" transform="translate(462.036458 0.96875)"/>
      <use xlink:href="#DejaVuSans-2e" transform="translate(489.819661 0.96875)"/>
      <use xlink:href="#DejaVuSans-64" transform="translate(557.324868 0.96875)"/>
      <use xlink:href="#DejaVuSans-Oblique-74" transform="translate(620.801431 0.96875)"/>
     </g>
    </g>
   </g>
  </g>
  <g id="axes_4">
   <g id="patch_23">
    <path d="M 398.894318 657.6988 
L 702.9 657.6988 
L 702.9 362.2368 
L 398.894318 362.2368 
z
" style="fill: #ffffff"/>
   </g>
   <g id="matplotlib.axis_7">
    <g id="xtick_23">
     <g id="line2d_54">
      <g>
       <use xlink:href="#mc89a8477c8" x="398.894318" y="657.6988" style="stroke: #000000; stroke-width: 0.8"/>
      </g>
     </g>
     <g id="text_53">
      <!-- 0 -->
      <g transform="translate(395.713068 672.297238) scale(0.1 -0.1)">
       <use xlink:href="#DejaVuSans-30"/>
      </g>
     </g>
    </g>
    <g id="xtick_24">
     <g id="line2d_55">
      <g>
       <use xlink:href="#mc89a8477c8" x="449.561932" y="657.6988" style="stroke: #000000; stroke-width: 0.8"/>
      </g>
     </g>
     <g id="text_54">
      <!-- 5 -->
      <g transform="translate(446.380682 672.297238) scale(0.1 -0.1)">
       <use xlink:href="#DejaVuSans-35"/>
      </g>
     </g>
    </g>
    <g id="xtick_25">
     <g id="line2d_56">
      <g>
       <use xlink:href="#mc89a8477c8" x="500.229545" y="657.6988" style="stroke: #000000; stroke-width: 0.8"/>
      </g>
     </g>
     <g id="text_55">
      <!-- 10 -->
      <g transform="translate(493.867045 672.297238) scale(0.1 -0.1)">
       <use xlink:href="#DejaVuSans-31"/>
       <use xlink:href="#DejaVuSans-30" x="63.623047"/>
      </g>
     </g>
    </g>
    <g id="xtick_26">
     <g id="line2d_57">
      <g>
       <use xlink:href="#mc89a8477c8" x="550.897159" y="657.6988" style="stroke: #000000; stroke-width: 0.8"/>
      </g>
     </g>
     <g id="text_56">
      <!-- 15 -->
      <g transform="translate(544.534659 672.297238) scale(0.1 -0.1)">
       <use xlink:href="#DejaVuSans-31"/>
       <use xlink:href="#DejaVuSans-35" x="63.623047"/>
      </g>
     </g>
    </g>
    <g id="xtick_27">
     <g id="line2d_58">
      <g>
       <use xlink:href="#mc89a8477c8" x="601.564773" y="657.6988" style="stroke: #000000; stroke-width: 0.8"/>
      </g>
     </g>
     <g id="text_57">
      <!-- 20 -->
      <g transform="translate(595.202273 672.297238) scale(0.1 -0.1)">
       <use xlink:href="#DejaVuSans-32"/>
       <use xlink:href="#DejaVuSans-30" x="63.623047"/>
      </g>
     </g>
    </g>
    <g id="xtick_28">
     <g id="line2d_59">
      <g>
       <use xlink:href="#mc89a8477c8" x="652.232386" y="657.6988" style="stroke: #000000; stroke-width: 0.8"/>
      </g>
     </g>
     <g id="text_58">
      <!-- 25 -->
      <g transform="translate(645.869886 672.297238) scale(0.1 -0.1)">
       <use xlink:href="#DejaVuSans-32"/>
       <use xlink:href="#DejaVuSans-35" x="63.623047"/>
      </g>
     </g>
    </g>
    <g id="xtick_29">
     <g id="line2d_60">
      <g>
       <use xlink:href="#mc89a8477c8" x="702.9" y="657.6988" style="stroke: #000000; stroke-width: 0.8"/>
      </g>
     </g>
     <g id="text_59">
      <!-- 30 -->
      <g transform="translate(696.5375 672.297238) scale(0.1 -0.1)">
       <use xlink:href="#DejaVuSans-33"/>
       <use xlink:href="#DejaVuSans-30" x="63.623047"/>
      </g>
     </g>
    </g>
    <g id="text_60">
     <!-- t [s] -->
     <g transform="translate(540.84169 685.975363) scale(0.1 -0.1)">
      <use xlink:href="#DejaVuSans-74"/>
      <use xlink:href="#DejaVuSans-20" x="39.208984"/>
      <use xlink:href="#DejaVuSans-5b" x="70.996094"/>
      <use xlink:href="#DejaVuSans-73" x="110.009766"/>
      <use xlink:href="#DejaVuSans-5d" x="162.109375"/>
     </g>
    </g>
   </g>
   <g id="matplotlib.axis_8">
    <g id="ytick_20">
     <g id="line2d_61">
      <g>
       <use xlink:href="#m048a1d1de7" x="398.894318" y="651.834957" style="stroke: #000000; stroke-width: 0.8"/>
      </g>
     </g>
     <g id="text_61">
      <!-- −3 -->
      <g transform="translate(377.152131 655.634176) scale(0.1 -0.1)">
       <use xlink:href="#DejaVuSans-2212"/>
       <use xlink:href="#DejaVuSans-33" x="83.789062"/>
      </g>
     </g>
    </g>
    <g id="ytick_21">
     <g id="line2d_62">
      <g>
       <use xlink:href="#m048a1d1de7" x="398.894318" y="604.545905" style="stroke: #000000; stroke-width: 0.8"/>
      </g>
     </g>
     <g id="text_62">
      <!-- −2 -->
      <g transform="translate(377.152131 608.345124) scale(0.1 -0.1)">
       <use xlink:href="#DejaVuSans-2212"/>
       <use xlink:href="#DejaVuSans-32" x="83.789062"/>
      </g>
     </g>
    </g>
    <g id="ytick_22">
     <g id="line2d_63">
      <g>
       <use xlink:href="#m048a1d1de7" x="398.894318" y="557.256852" style="stroke: #000000; stroke-width: 0.8"/>
      </g>
     </g>
     <g id="text_63">
      <!-- −1 -->
      <g transform="translate(377.152131 561.056071) scale(0.1 -0.1)">
       <use xlink:href="#DejaVuSans-2212"/>
       <use xlink:href="#DejaVuSans-31" x="83.789062"/>
      </g>
     </g>
    </g>
    <g id="ytick_23">
     <g id="line2d_64">
      <g>
       <use xlink:href="#m048a1d1de7" x="398.894318" y="509.9678" style="stroke: #000000; stroke-width: 0.8"/>
      </g>
     </g>
     <g id="text_64">
      <!-- 0 -->
      <g transform="translate(385.531818 513.767019) scale(0.1 -0.1)">
       <use xlink:href="#DejaVuSans-30"/>
      </g>
     </g>
    </g>
    <g id="ytick_24">
     <g id="line2d_65">
      <g>
       <use xlink:href="#m048a1d1de7" x="398.894318" y="462.678748" style="stroke: #000000; stroke-width: 0.8"/>
      </g>
     </g>
     <g id="text_65">
      <!-- 1 -->
      <g transform="translate(385.531818 466.477966) scale(0.1 -0.1)">
       <use xlink:href="#DejaVuSans-31"/>
      </g>
     </g>
    </g>
    <g id="ytick_25">
     <g id="line2d_66">
      <g>
       <use xlink:href="#m048a1d1de7" x="398.894318" y="415.389695" style="stroke: #000000; stroke-width: 0.8"/>
      </g>
     </g>
     <g id="text_66">
      <!-- 2 -->
      <g transform="translate(385.531818 419.188914) scale(0.1 -0.1)">
       <use xlink:href="#DejaVuSans-32"/>
      </g>
     </g>
    </g>
    <g id="ytick_26">
     <g id="line2d_67">
      <g>
       <use xlink:href="#m048a1d1de7" x="398.894318" y="368.100643" style="stroke: #000000; stroke-width: 0.8"/>
      </g>
     </g>
     <g id="text_67">
      <!-- 3 -->
      <g transform="translate(385.531818 371.899861) scale(0.1 -0.1)">
       <use xlink:href="#DejaVuSans-33"/>
      </g>
     </g>
    </g>
   </g>
   <g id="line2d_68">
    <path d="M 398.894318 509.9678 
L 702.9 509.9678 
" clip-path="url(#p981fea31f3)" style="fill: none; stroke-dasharray: 2.775,1.2; stroke-dashoffset: 0; stroke: #000000; stroke-width: 0.75"/>
   </g>
   <g id="line2d_69">
    <path d="M 398.894318 509.9678 
L 398.993131 511.008159 
L 399.499807 511.008159 
L 400.006483 515.661865 
L 400.513159 515.661865 
L 401.019836 499.564208 
L 402.033188 499.564208 
L 402.539864 509.018233 
L 403.553216 509.018233 
L 404.059892 499.564208 
L 404.566569 499.564208 
L 405.073245 504.546525 
L 405.579921 504.546525 
L 406.086597 499.564208 
L 418.7535 499.564208 
L 419.260176 520.371392 
L 420.273529 520.371392 
L 420.780205 499.564208 
L 423.313586 499.564208 
L 423.820262 520.371389 
L 424.833614 520.371389 
L 425.34029 499.564208 
L 429.393699 499.564208 
L 429.900375 519.675334 
L 430.913728 519.675334 
L 431.420404 499.564208 
L 450.167421 499.564208 
L 450.674097 519.554434 
L 451.687449 519.554434 
L 452.194125 499.564208 
L 453.207478 499.564208 
L 453.714154 520.067946 
L 454.727506 520.067946 
L 455.234182 499.564208 
L 456.247534 499.564208 
L 456.754211 514.976733 
L 457.767563 514.976733 
L 458.274239 499.564208 
L 459.287591 499.564208 
L 459.794267 517.114442 
L 460.80762 517.114442 
L 461.314296 499.564208 
L 465.367705 499.564208 
L 465.874381 516.281178 
L 466.887733 516.281178 
L 467.394409 499.564208 
L 471.447819 499.564208 
L 471.954495 500.151382 
L 472.967847 500.151382 
L 473.474523 500.889471 
L 474.487875 500.889471 
L 474.994551 513.436668 
L 476.007904 513.436668 
L 476.51458 501.33677 
L 477.527932 501.33677 
L 478.034608 501.953751 
L 479.047961 501.953751 
L 479.554637 502.554645 
L 480.061313 502.554645 
L 480.567989 502.920982 
L 481.074665 502.920982 
L 481.581341 503.274431 
L 482.088017 503.274431 
L 482.594694 503.60826 
L 483.10137 503.60826 
L 483.608046 503.925327 
L 484.114722 503.925327 
L 484.621398 504.226787 
L 485.128074 504.226787 
L 485.63475 504.513059 
L 486.141426 504.513059 
L 486.648103 504.785179 
L 487.154779 504.785179 
L 487.661455 505.043656 
L 488.168131 505.043656 
L 488.674807 505.28932 
L 488.674807 505.28932 
" clip-path="url(#p981fea31f3)" style="fill: none; stroke: #1f77b4; stroke-width: 0.5; stroke-linecap: square"/>
   </g>
   <g id="line2d_70">
    <path d="M 398.894318 509.9678 
L 398.993131 523.397891 
L 399.499807 523.397891 
L 400.006483 524.97236 
L 400.513159 524.97236 
L 401.019836 644.268709 
L 402.033188 644.268709 
L 402.539864 515.251459 
L 403.553216 515.251459 
L 404.059892 644.268709 
L 404.566569 644.268709 
L 405.073245 508.298431 
L 405.579921 508.298431 
L 406.086597 385.343909 
L 406.593273 385.343909 
L 407.099949 625.634695 
L 407.606625 625.634695 
L 408.113301 375.667184 
L 408.619978 375.667184 
L 409.126654 644.268709 
L 409.63333 644.268709 
L 410.140006 491.04846 
L 410.646682 491.04846 
L 411.153358 452.512864 
L 411.660034 452.512864 
L 412.166711 566.495814 
L 412.673387 566.495814 
L 413.180063 466.77225 
L 413.686739 466.77225 
L 414.193415 546.615186 
L 414.700091 546.615186 
L 415.206767 483.550847 
L 415.713444 483.550847 
L 416.22012 644.268709 
L 416.726796 644.268709 
L 417.233472 375.666891 
L 417.740148 375.666891 
L 418.246824 524.126578 
L 418.7535 524.126578 
L 419.260176 375.666891 
L 420.273529 375.666891 
L 420.780205 644.268709 
L 421.793557 644.268709 
L 422.300233 524.049405 
L 423.313586 524.049405 
L 423.820262 644.268709 
L 424.833614 644.268709 
L 425.34029 375.666891 
L 426.353642 375.666891 
L 426.860319 460.924053 
L 427.873671 460.924053 
L 428.380347 621.794959 
L 429.393699 621.794959 
L 429.900375 375.667436 
L 430.913728 375.667436 
L 431.420404 644.268709 
L 432.433756 644.268709 
L 432.940432 375.666891 
L 433.953784 375.666891 
L 434.460461 644.268709 
L 435.473813 644.268709 
L 435.980489 375.666891 
L 436.993841 375.666891 
L 437.500517 644.268709 
L 438.51387 644.268709 
L 439.020546 375.666891 
L 439.527222 375.666891 
L 440.033898 572.482811 
L 441.04725 572.482811 
L 441.553926 408.214707 
L 442.567279 408.214707 
L 443.073955 644.268709 
L 444.087307 644.268709 
L 444.593983 375.666891 
L 445.607336 375.666891 
L 446.114012 644.268709 
L 447.127364 644.268709 
L 447.63404 375.666891 
L 448.647392 375.666891 
L 449.154069 644.268709 
L 451.687449 644.268709 
L 452.194125 375.666891 
L 453.207478 375.666891 
L 453.714154 415.418856 
L 454.727506 415.418856 
L 455.234182 621.345996 
L 456.247534 621.345996 
L 456.754211 376.16207 
L 457.767563 376.16207 
L 458.274239 644.268709 
L 459.287591 644.268709 
L 459.794267 416.768914 
L 460.80762 416.768914 
L 461.314296 572.282191 
L 462.327648 572.282191 
L 462.834324 405.510017 
L 463.847676 405.510017 
L 464.354353 644.268709 
L 465.367705 644.268709 
L 465.874381 408.631329 
L 466.887733 408.631329 
L 467.394409 623.234017 
L 468.407762 623.234017 
L 468.914438 375.666891 
L 469.92779 375.666891 
L 470.434466 644.268709 
L 471.447819 644.268709 
L 471.954495 375.666891 
L 472.967847 375.666891 
L 473.474523 644.268709 
L 474.487875 644.268709 
L 474.994551 375.666891 
L 476.007904 375.666891 
L 476.51458 644.268709 
L 477.527932 644.268709 
L 478.034608 375.666891 
L 479.047961 375.666891 
L 479.554637 644.268709 
L 480.061313 644.268709 
L 480.567989 518.72137 
L 481.074665 518.72137 
L 481.581341 494.956923 
L 482.088017 494.956923 
L 482.594694 528.540811 
L 483.10137 528.540811 
L 483.608046 500.460068 
L 484.114722 500.460068 
L 484.621398 522.513369 
L 485.128074 522.513369 
L 485.63475 505.262754 
L 486.141426 505.262754 
L 486.648103 518.653884 
L 487.154779 518.653884 
L 487.661455 508.178337 
L 488.168131 508.178337 
L 488.674807 516.29087 
L 488.674807 516.29087 
" clip-path="url(#p981fea31f3)" style="fill: none; stroke: #ff7f0e; stroke-width: 0.5; stroke-linecap: square"/>
   </g>
   <g id="patch_24">
    <path d="M 398.894318 657.6988 
L 398.894318 362.2368 
" style="fill: none; stroke: #000000; stroke-width: 0.8; stroke-linejoin: miter; stroke-linecap: square"/>
   </g>
   <g id="patch_25">
    <path d="M 702.9 657.6988 
L 702.9 362.2368 
" style="fill: none; stroke: #000000; stroke-width: 0.8; stroke-linejoin: miter; stroke-linecap: square"/>
   </g>
   <g id="patch_26">
    <path d="M 398.894318 657.6988 
L 702.9 657.6988 
" style="fill: none; stroke: #000000; stroke-width: 0.8; stroke-linejoin: miter; stroke-linecap: square"/>
   </g>
   <g id="patch_27">
    <path d="M 398.894318 362.2368 
L 702.9 362.2368 
" style="fill: none; stroke: #000000; stroke-width: 0.8; stroke-linejoin: miter; stroke-linecap: square"/>
   </g>
   <g id="legend_3">
    <g id="patch_28">
     <path d="M 619.3 399.59305 
L 695.9 399.59305 
Q 697.9 399.59305 697.9 397.59305 
L 697.9 369.2368 
Q 697.9 367.2368 695.9 367.2368 
L 619.3 367.2368 
Q 617.3 367.2368 617.3 369.2368 
L 617.3 397.59305 
Q 617.3 399.59305 619.3 399.59305 
z
" style="fill: #ffffff; opacity: 0.8; stroke: #cccccc; stroke-linejoin: miter"/>
    </g>
    <g id="line2d_71">
     <path d="M 621.3 375.335238 
L 631.3 375.335238 
L 641.3 375.335238 
" style="fill: none; stroke: #1f77b4; stroke-width: 0.5; stroke-linecap: square"/>
    </g>
    <g id="text_68">
     <!-- v [m/s] -->
     <g transform="translate(649.3 378.835238) scale(0.1 -0.1)">
      <defs>
       <path id="DejaVuSans-76" d="M 191 3500 
L 800 3500 
L 1894 563 
L 2988 3500 
L 3597 3500 
L 2284 0 
L 1503 0 
L 191 3500 
z
" transform="scale(0.015625)"/>
       <path id="DejaVuSans-2f" d="M 1625 4666 
L 2156 4666 
L 531 -594 
L 0 -594 
L 1625 4666 
z
" transform="scale(0.015625)"/>
      </defs>
      <use xlink:href="#DejaVuSans-76"/>
      <use xlink:href="#DejaVuSans-20" x="59.179688"/>
      <use xlink:href="#DejaVuSans-5b" x="90.966797"/>
      <use xlink:href="#DejaVuSans-6d" x="129.980469"/>
      <use xlink:href="#DejaVuSans-2f" x="227.392578"/>
      <use xlink:href="#DejaVuSans-73" x="261.083984"/>
      <use xlink:href="#DejaVuSans-5d" x="313.183594"/>
     </g>
    </g>
    <g id="line2d_72">
     <path d="M 621.3 390.013363 
L 631.3 390.013363 
L 641.3 390.013363 
" style="fill: none; stroke: #ff7f0e; stroke-width: 0.5; stroke-linecap: square"/>
    </g>
    <g id="text_69">
     <!-- $\omega$ [rad/s] -->
     <g transform="translate(649.3 393.513363) scale(0.1 -0.1)">
      <defs>
       <path id="DejaVuSans-Oblique-3c9" d="M 1369 -91 
Q 72 -91 434 1766 
Q 575 2500 1256 3500 
L 1875 3500 
Q 1231 2500 1088 1750 
Q 819 397 1519 397 
Q 2166 397 2478 2078 
L 3009 2078 
Q 2669 388 3316 397 
Q 4013 403 4275 1750 
Q 4419 2500 4169 3500 
L 4788 3500 
Q 5075 2500 4934 1766 
Q 4578 -94 3278 -91 
Q 2428 -88 2503 844 
Q 2194 -91 1369 -91 
z
" transform="scale(0.015625)"/>
      </defs>
      <use xlink:href="#DejaVuSans-Oblique-3c9" transform="translate(0 0.015625)"/>
      <use xlink:href="#DejaVuSans-20" transform="translate(83.740234 0.015625)"/>
      <use xlink:href="#DejaVuSans-5b" transform="translate(115.527344 0.015625)"/>
      <use xlink:href="#DejaVuSans-72" transform="translate(154.541016 0.015625)"/>
      <use xlink:href="#DejaVuSans-61" transform="translate(195.654297 0.015625)"/>
      <use xlink:href="#DejaVuSans-64" transform="translate(256.933594 0.015625)"/>
      <use xlink:href="#DejaVuSans-2f" transform="translate(320.410156 0.015625)"/>
      <use xlink:href="#DejaVuSans-73" transform="translate(354.101562 0.015625)"/>
      <use xlink:href="#DejaVuSans-5d" transform="translate(406.201172 0.015625)"/>
     </g>
    </g>
   </g>
  </g>
  <g id="text_70">
   <!-- $\int \mathrm{Run.\,obj.} \,\mathrm{d}t$ = 447.5 -->
   <g transform="translate(36 353.05) scale(0.1 -0.1)">
    <defs>
     <path id="DejaVuSans-37" d="M 525 4666 
L 3525 4666 
L 3525 4397 
L 1831 0 
L 1172 0 
L 2766 4134 
L 525 4134 
L 525 4666 
z
" transform="scale(0.015625)"/>
    </defs>
    <use xlink:href="#DejaVuSansDisplay-222b" transform="translate(0 0.96875)"/>
    <use xlink:href="#DejaVuSans-52" transform="translate(73.632812 0.96875)"/>
    <use xlink:href="#DejaVuSans-75" transform="translate(143.115234 0.96875)"/>
    <use xlink:href="#DejaVuSans-6e" transform="translate(206.494141 0.96875)"/>
    <use xlink:href="#DejaVuSans-2e" transform="translate(269.873047 0.96875)"/>
    <use xlink:href="#DejaVuSans-6f" transform="translate(337.378254 0.96875)"/>
    <use xlink:href="#DejaVuSans-62" transform="translate(398.559895 0.96875)"/>
    <use xlink:href="#DejaVuSans-6a" transform="translate(462.036458 0.96875)"/>
    <use xlink:href="#DejaVuSans-2e" transform="translate(489.819661 0.96875)"/>
    <use xlink:href="#DejaVuSans-64" transform="translate(557.324868 0.96875)"/>
    <use xlink:href="#DejaVuSans-Oblique-74" transform="translate(620.801431 0.96875)"/>
    <use xlink:href="#DejaVuSans-20" transform="translate(660.010415 0.96875)"/>
    <use xlink:href="#DejaVuSans-3d" transform="translate(691.797524 0.96875)"/>
    <use xlink:href="#DejaVuSans-20" transform="translate(775.586587 0.96875)"/>
    <use xlink:href="#DejaVuSans-34" transform="translate(807.373696 0.96875)"/>
    <use xlink:href="#DejaVuSans-34" transform="translate(870.996743 0.96875)"/>
    <use xlink:href="#DejaVuSans-37" transform="translate(934.61979 0.96875)"/>
    <use xlink:href="#DejaVuSans-2e" transform="translate(998.242837 0.96875)"/>
    <use xlink:href="#DejaVuSans-35" transform="translate(1030.029946 0.96875)"/>
   </g>
  </g>
 </g>
 <defs>
  <clipPath id="p74d9a9e3e2">
   <rect x="59.543659" y="26.0736" width="295.462" height="295.462"/>
  </clipPath>
  <clipPath id="pe92615dd25">
   <rect x="398.894318" y="26.0736" width="304.005682" height="295.462"/>
  </clipPath>
  <clipPath id="p17a9502a88">
   <rect x="55.271818" y="362.2368" width="304.005682" height="295.462"/>
  </clipPath>
  <clipPath id="p981fea31f3">
   <rect x="398.894318" y="362.2368" width="304.005682" height="295.462"/>
  </clipPath>
 </defs>
</svg>
